<?xml version="1.0" encoding="us-ascii" standalone="no"?><svg xmlns="http://www.w3.org/2000/svg" xmlns:xlink="http://www.w3.org/1999/xlink" contentStyleType="text/css" height="1023px" preserveAspectRatio="none" style="width:2053px;height:1023px;background:#FFFFFF;" version="1.1" viewBox="0 0 2053 1023" width="2053px" zoomAndPan="magnify"><defs/><g><text fill="#000000" font-family="sans-serif" font-size="14" font-weight="bold" lengthAdjust="spacing" textLength="316" x="867" y="32.9951">Approving or Rejecting Leave Requests</text><ellipse cx="1555.6875" cy="57.2969" fill="#222222" rx="10" ry="10" style="stroke:#222222;stroke-width:1.0;"/><rect fill="#F1F1F1" height="33.9688" rx="12.5" ry="12.5" style="stroke:#181818;stroke-width:0.5;" width="358" x="1376.6875" y="87.2969"/><text fill="#000000" font-family="sans-serif" font-size="12" lengthAdjust="spacing" textLength="338" x="1386.6875" y="108.4355">Supervisor selects "Approve or Reject Leave Requests"</text><polygon fill="#F1F1F1" points="1395.6875,141.2656,1715.6875,141.2656,1727.6875,153.2656,1715.6875,165.2656,1395.6875,165.2656,1383.6875,153.2656,1395.6875,141.2656" style="stroke:#181818;stroke-width:0.5;"/><text fill="#000000" font-family="sans-serif" font-size="11" lengthAdjust="spacing" textLength="320" x="1395.6875" y="157.0737">Supervisor selects "Approve or Reject Leave Requests"</text><text fill="#000000" font-family="sans-serif" font-size="11" lengthAdjust="spacing" textLength="21" x="1362.6875" y="150.6714">yes</text><text fill="#000000" font-family="sans-serif" font-size="11" lengthAdjust="spacing" textLength="14" x="1727.6875" y="150.6714">no</text><rect fill="#F1F1F1" height="33.9688" rx="12.5" ry="12.5" style="stroke:#181818;stroke-width:0.5;" width="443" x="940.875" y="175.2656"/><text fill="#000000" font-family="sans-serif" font-size="12" lengthAdjust="spacing" textLength="423" x="950.875" y="196.4043">Application retrieves a list of leave requests submitted by employees</text><polygon fill="#F1F1F1" points="1021.375,229.2344,1303.375,229.2344,1315.375,241.2344,1303.375,253.2344,1021.375,253.2344,1009.375,241.2344,1021.375,229.2344" style="stroke:#181818;stroke-width:0.5;"/><text fill="#000000" font-family="sans-serif" font-size="11" lengthAdjust="spacing" textLength="282" x="1021.375" y="245.0425">Application successfully retrieves leave requests</text><text fill="#000000" font-family="sans-serif" font-size="11" lengthAdjust="spacing" textLength="21" x="988.375" y="238.6401">yes</text><text fill="#000000" font-family="sans-serif" font-size="11" lengthAdjust="spacing" textLength="14" x="1315.375" y="238.6401">no</text><rect fill="#F1F1F1" height="33.9688" rx="12.5" ry="12.5" style="stroke:#181818;stroke-width:0.5;" width="320" x="612.75" y="263.2344"/><text fill="#000000" font-family="sans-serif" font-size="12" lengthAdjust="spacing" textLength="300" x="622.75" y="284.373">Supervisor can choose a leave request to review</text><polygon fill="#F1F1F1" points="671.75,317.2031,873.75,317.2031,885.75,329.2031,873.75,341.2031,671.75,341.2031,659.75,329.2031,671.75,317.2031" style="stroke:#181818;stroke-width:0.5;"/><text fill="#000000" font-family="sans-serif" font-size="11" lengthAdjust="spacing" textLength="202" x="671.75" y="333.0112">Supervisor selects a leave request</text><text fill="#000000" font-family="sans-serif" font-size="11" lengthAdjust="spacing" textLength="21" x="638.75" y="326.6089">yes</text><text fill="#000000" font-family="sans-serif" font-size="11" lengthAdjust="spacing" textLength="14" x="885.75" y="326.6089">no</text><rect fill="#F1F1F1" height="33.9688" rx="12.5" ry="12.5" style="stroke:#181818;stroke-width:0.5;" width="470" x="216" y="351.2031"/><text fill="#000000" font-family="sans-serif" font-size="12" lengthAdjust="spacing" textLength="450" x="226" y="372.3418">Application displays detailed information about the selected leave request</text><rect fill="#F1F1F1" height="33.9688" rx="12.5" ry="12.5" style="stroke:#181818;stroke-width:0.5;" width="450" x="226" y="405.1719"/><text fill="#000000" font-family="sans-serif" font-size="12" lengthAdjust="spacing" textLength="430" x="236" y="426.3105">Supervisor reviews leave details (such as dates, duration, and reason)</text><rect fill="#F1F1F1" height="33.9688" rx="12.5" ry="12.5" style="stroke:#181818;stroke-width:0.5;" width="447" x="227.5" y="459.1406"/><text fill="#000000" font-family="sans-serif" font-size="12" lengthAdjust="spacing" textLength="427" x="237.5" y="480.2793">Supervisor can view the employee's leave history and current balance</text><rect fill="#F1F1F1" height="33.9688" rx="12.5" ry="12.5" style="stroke:#181818;stroke-width:0.5;" width="403" x="249.5" y="513.1094"/><text fill="#000000" font-family="sans-serif" font-size="12" lengthAdjust="spacing" textLength="383" x="259.5" y="534.248">Supervisor can consult with relevant team members or policies</text><polygon fill="#F1F1F1" points="338,567.0781,564,567.0781,576,579.0781,564,591.0781,338,591.0781,326,579.0781,338,567.0781" style="stroke:#181818;stroke-width:0.5;"/><text fill="#000000" font-family="sans-serif" font-size="11" lengthAdjust="spacing" textLength="226" x="338" y="582.8862">Supervisor approves the leave request</text><text fill="#000000" font-family="sans-serif" font-size="11" lengthAdjust="spacing" textLength="21" x="305" y="576.4839">yes</text><text fill="#000000" font-family="sans-serif" font-size="11" lengthAdjust="spacing" textLength="14" x="576" y="576.4839">no</text><rect fill="#F1F1F1" height="33.9688" rx="12.5" ry="12.5" style="stroke:#181818;stroke-width:0.5;" width="359" x="46.5" y="601.0781"/><text fill="#000000" font-family="sans-serif" font-size="12" lengthAdjust="spacing" textLength="339" x="56.5" y="622.2168">Supervisor provides comments or reasons for approval</text><rect fill="#F1F1F1" height="33.9688" rx="12.5" ry="12.5" style="stroke:#181818;stroke-width:0.5;" width="366" x="43" y="655.0469"/><text fill="#000000" font-family="sans-serif" font-size="12" lengthAdjust="spacing" textLength="346" x="53" y="676.1855">Application records the approval decision and comments</text><rect fill="#F1F1F1" height="33.9688" rx="12.5" ry="12.5" style="stroke:#181818;stroke-width:0.5;" width="430" x="11" y="709.0156"/><text fill="#000000" font-family="sans-serif" font-size="12" lengthAdjust="spacing" textLength="410" x="21" y="730.1543">Application communicates the approval to the respective employee</text><rect fill="#F1F1F1" height="33.9688" rx="12.5" ry="12.5" style="stroke:#181818;stroke-width:0.5;" width="403" x="24.5" y="762.9844"/><text fill="#000000" font-family="sans-serif" font-size="12" lengthAdjust="spacing" textLength="383" x="34.5" y="784.123">Employee is notified that the leave request has been approved</text><rect fill="#F1F1F1" height="33.9688" rx="12.5" ry="12.5" style="stroke:#181818;stroke-width:0.5;" width="313" x="69.5" y="816.9531"/><text fill="#000000" font-family="sans-serif" font-size="12" lengthAdjust="spacing" textLength="293" x="79.5" y="838.0918">Leave is deducted from the employee's balance</text><rect fill="#F1F1F1" height="33.9688" rx="12.5" ry="12.5" style="stroke:#181818;stroke-width:0.5;" width="243" x="554.5" y="601.0781"/><text fill="#000000" font-family="sans-serif" font-size="12" lengthAdjust="spacing" textLength="223" x="564.5" y="622.2168">Supervisor rejects the leave request</text><rect fill="#F1F1F1" height="33.9688" rx="12.5" ry="12.5" style="stroke:#181818;stroke-width:0.5;" width="359" x="496.5" y="655.0469"/><text fill="#000000" font-family="sans-serif" font-size="12" lengthAdjust="spacing" textLength="339" x="506.5" y="676.1855">Supervisor provides comments or reasons for rejection</text><rect fill="#F1F1F1" height="33.9688" rx="12.5" ry="12.5" style="stroke:#181818;stroke-width:0.5;" width="366" x="493" y="709.0156"/><text fill="#000000" font-family="sans-serif" font-size="12" lengthAdjust="spacing" textLength="346" x="503" y="730.1543">Application records the rejection decision and comments</text><rect fill="#F1F1F1" height="33.9688" rx="12.5" ry="12.5" style="stroke:#181818;stroke-width:0.5;" width="430" x="461" y="762.9844"/><text fill="#000000" font-family="sans-serif" font-size="12" lengthAdjust="spacing" textLength="410" x="471" y="784.123">Application communicates the rejection to the respective employee</text><rect fill="#F1F1F1" height="33.9688" rx="12.5" ry="12.5" style="stroke:#181818;stroke-width:0.5;" width="395" x="478.5" y="816.9531"/><text fill="#000000" font-family="sans-serif" font-size="12" lengthAdjust="spacing" textLength="375" x="488.5" y="838.0918">Employee is notified that the leave request has been rejected</text><polygon fill="#F1F1F1" points="451,856.9219,463,868.9219,451,880.9219,439,868.9219,451,856.9219" style="stroke:#181818;stroke-width:0.5;"/><rect fill="#F1F1F1" height="33.9688" rx="12.5" ry="12.5" style="stroke:#181818;stroke-width:0.5;" width="347" x="921" y="351.2031"/><text fill="#000000" font-family="sans-serif" font-size="12" lengthAdjust="spacing" textLength="327" x="931" y="372.3418">Supervisor can exit the leave request review process</text><polygon fill="#F1F1F1" points="772.75,886.9219,784.75,898.9219,772.75,910.9219,760.75,898.9219,772.75,886.9219" style="stroke:#181818;stroke-width:0.5;"/><rect fill="#F1F1F1" height="33.9688" rx="12.5" ry="12.5" style="stroke:#181818;stroke-width:0.5;" width="508" x="1298" y="263.2344"/><text fill="#000000" font-family="sans-serif" font-size="12" lengthAdjust="spacing" textLength="488" x="1308" y="284.373">Display error message "Failed to retrieve leave requests. Please try again later."</text><rect fill="#F1F1F1" height="33.9688" rx="12.5" ry="12.5" style="stroke:#181818;stroke-width:0.5;" width="249" x="1427.5" y="317.2031"/><text fill="#000000" font-family="sans-serif" font-size="12" lengthAdjust="spacing" textLength="229" x="1437.5" y="338.3418">-&gt; Supervisor selects another option;</text><polygon fill="#F1F1F1" points="1162.375,916.9219,1174.375,928.9219,1162.375,940.9219,1150.375,928.9219,1162.375,916.9219" style="stroke:#181818;stroke-width:0.5;"/><rect fill="#F1F1F1" height="33.9688" rx="12.5" ry="12.5" style="stroke:#181818;stroke-width:0.5;" width="226" x="1816" y="175.2656"/><text fill="#000000" font-family="sans-serif" font-size="12" lengthAdjust="spacing" textLength="206" x="1826" y="196.4043">Supervisor selects another option</text><polygon fill="#F1F1F1" points="1555.6875,946.9219,1567.6875,958.9219,1555.6875,970.9219,1543.6875,958.9219,1555.6875,946.9219" style="stroke:#181818;stroke-width:0.5;"/><ellipse cx="1555.6875" cy="1001.9219" fill="none" rx="11" ry="11" style="stroke:#222222;stroke-width:1.0;"/><ellipse cx="1555.6875" cy="1001.9219" fill="#222222" rx="6" ry="6" style="stroke:#222222;stroke-width:1.0;"/><line style="stroke:#181818;stroke-width:1.0;" x1="1555.6875" x2="1555.6875" y1="67.2969" y2="87.2969"/><polygon fill="#181818" points="1551.6875,77.2969,1555.6875,87.2969,1559.6875,77.2969,1555.6875,81.2969" style="stroke:#181818;stroke-width:1.0;"/><line style="stroke:#181818;stroke-width:1.0;" x1="451" x2="451" y1="385.1719" y2="405.1719"/><polygon fill="#181818" points="447,395.1719,451,405.1719,455,395.1719,451,399.1719" style="stroke:#181818;stroke-width:1.0;"/><line style="stroke:#181818;stroke-width:1.0;" x1="451" x2="451" y1="439.1406" y2="459.1406"/><polygon fill="#181818" points="447,449.1406,451,459.1406,455,449.1406,451,453.1406" style="stroke:#181818;stroke-width:1.0;"/><line style="stroke:#181818;stroke-width:1.0;" x1="451" x2="451" y1="493.1094" y2="513.1094"/><polygon fill="#181818" points="447,503.1094,451,513.1094,455,503.1094,451,507.1094" style="stroke:#181818;stroke-width:1.0;"/><line style="stroke:#181818;stroke-width:1.0;" x1="226" x2="226" y1="635.0469" y2="655.0469"/><polygon fill="#181818" points="222,645.0469,226,655.0469,230,645.0469,226,649.0469" style="stroke:#181818;stroke-width:1.0;"/><line style="stroke:#181818;stroke-width:1.0;" x1="226" x2="226" y1="689.0156" y2="709.0156"/><polygon fill="#181818" points="222,699.0156,226,709.0156,230,699.0156,226,703.0156" style="stroke:#181818;stroke-width:1.0;"/><line style="stroke:#181818;stroke-width:1.0;" x1="226" x2="226" y1="742.9844" y2="762.9844"/><polygon fill="#181818" points="222,752.9844,226,762.9844,230,752.9844,226,756.9844" style="stroke:#181818;stroke-width:1.0;"/><line style="stroke:#181818;stroke-width:1.0;" x1="226" x2="226" y1="796.9531" y2="816.9531"/><polygon fill="#181818" points="222,806.9531,226,816.9531,230,806.9531,226,810.9531" style="stroke:#181818;stroke-width:1.0;"/><line style="stroke:#181818;stroke-width:1.0;" x1="676" x2="676" y1="635.0469" y2="655.0469"/><polygon fill="#181818" points="672,645.0469,676,655.0469,680,645.0469,676,649.0469" style="stroke:#181818;stroke-width:1.0;"/><line style="stroke:#181818;stroke-width:1.0;" x1="676" x2="676" y1="689.0156" y2="709.0156"/><polygon fill="#181818" points="672,699.0156,676,709.0156,680,699.0156,676,703.0156" style="stroke:#181818;stroke-width:1.0;"/><line style="stroke:#181818;stroke-width:1.0;" x1="676" x2="676" y1="742.9844" y2="762.9844"/><polygon fill="#181818" points="672,752.9844,676,762.9844,680,752.9844,676,756.9844" style="stroke:#181818;stroke-width:1.0;"/><line style="stroke:#181818;stroke-width:1.0;" x1="676" x2="676" y1="796.9531" y2="816.9531"/><polygon fill="#181818" points="672,806.9531,676,816.9531,680,806.9531,676,810.9531" style="stroke:#181818;stroke-width:1.0;"/><line style="stroke:#181818;stroke-width:1.0;" x1="326" x2="226" y1="579.0781" y2="579.0781"/><line style="stroke:#181818;stroke-width:1.0;" x1="226" x2="226" y1="579.0781" y2="601.0781"/><polygon fill="#181818" points="222,591.0781,226,601.0781,230,591.0781,226,595.0781" style="stroke:#181818;stroke-width:1.0;"/><line style="stroke:#181818;stroke-width:1.0;" x1="576" x2="676" y1="579.0781" y2="579.0781"/><line style="stroke:#181818;stroke-width:1.0;" x1="676" x2="676" y1="579.0781" y2="601.0781"/><polygon fill="#181818" points="672,591.0781,676,601.0781,680,591.0781,676,595.0781" style="stroke:#181818;stroke-width:1.0;"/><line style="stroke:#181818;stroke-width:1.0;" x1="226" x2="226" y1="850.9219" y2="868.9219"/><line style="stroke:#181818;stroke-width:1.0;" x1="226" x2="439" y1="868.9219" y2="868.9219"/><polygon fill="#181818" points="429,864.9219,439,868.9219,429,872.9219,433,868.9219" style="stroke:#181818;stroke-width:1.0;"/><line style="stroke:#181818;stroke-width:1.0;" x1="676" x2="676" y1="850.9219" y2="868.9219"/><line style="stroke:#181818;stroke-width:1.0;" x1="676" x2="463" y1="868.9219" y2="868.9219"/><polygon fill="#181818" points="473,864.9219,463,868.9219,473,872.9219,469,868.9219" style="stroke:#181818;stroke-width:1.0;"/><line style="stroke:#181818;stroke-width:1.0;" x1="451" x2="451" y1="547.0781" y2="567.0781"/><polygon fill="#181818" points="447,557.0781,451,567.0781,455,557.0781,451,561.0781" style="stroke:#181818;stroke-width:1.0;"/><line style="stroke:#181818;stroke-width:1.0;" x1="659.75" x2="451" y1="329.2031" y2="329.2031"/><line style="stroke:#181818;stroke-width:1.0;" x1="451" x2="451" y1="329.2031" y2="351.2031"/><polygon fill="#181818" points="447,341.2031,451,351.2031,455,341.2031,451,345.2031" style="stroke:#181818;stroke-width:1.0;"/><line style="stroke:#181818;stroke-width:1.0;" x1="885.75" x2="1094.5" y1="329.2031" y2="329.2031"/><line style="stroke:#181818;stroke-width:1.0;" x1="1094.5" x2="1094.5" y1="329.2031" y2="351.2031"/><polygon fill="#181818" points="1090.5,341.2031,1094.5,351.2031,1098.5,341.2031,1094.5,345.2031" style="stroke:#181818;stroke-width:1.0;"/><line style="stroke:#181818;stroke-width:1.0;" x1="451" x2="451" y1="880.9219" y2="898.9219"/><line style="stroke:#181818;stroke-width:1.0;" x1="451" x2="760.75" y1="898.9219" y2="898.9219"/><polygon fill="#181818" points="750.75,894.9219,760.75,898.9219,750.75,902.9219,754.75,898.9219" style="stroke:#181818;stroke-width:1.0;"/><line style="stroke:#181818;stroke-width:1.0;" x1="1094.5" x2="1094.5" y1="385.1719" y2="898.9219"/><line style="stroke:#181818;stroke-width:1.0;" x1="1094.5" x2="784.75" y1="898.9219" y2="898.9219"/><polygon fill="#181818" points="794.75,894.9219,784.75,898.9219,794.75,902.9219,790.75,898.9219" style="stroke:#181818;stroke-width:1.0;"/><line style="stroke:#181818;stroke-width:1.0;" x1="772.75" x2="772.75" y1="297.2031" y2="317.2031"/><polygon fill="#181818" points="768.75,307.2031,772.75,317.2031,776.75,307.2031,772.75,311.2031" style="stroke:#181818;stroke-width:1.0;"/><line style="stroke:#181818;stroke-width:1.0;" x1="1552" x2="1552" y1="297.2031" y2="317.2031"/><polygon fill="#181818" points="1548,307.2031,1552,317.2031,1556,307.2031,1552,311.2031" style="stroke:#181818;stroke-width:1.0;"/><line style="stroke:#181818;stroke-width:1.0;" x1="1009.375" x2="772.75" y1="241.2344" y2="241.2344"/><line style="stroke:#181818;stroke-width:1.0;" x1="772.75" x2="772.75" y1="241.2344" y2="263.2344"/><polygon fill="#181818" points="768.75,253.2344,772.75,263.2344,776.75,253.2344,772.75,257.2344" style="stroke:#181818;stroke-width:1.0;"/><line style="stroke:#181818;stroke-width:1.0;" x1="1315.375" x2="1552" y1="241.2344" y2="241.2344"/><line style="stroke:#181818;stroke-width:1.0;" x1="1552" x2="1552" y1="241.2344" y2="263.2344"/><polygon fill="#181818" points="1548,253.2344,1552,263.2344,1556,253.2344,1552,257.2344" style="stroke:#181818;stroke-width:1.0;"/><line style="stroke:#181818;stroke-width:1.0;" x1="772.75" x2="772.75" y1="910.9219" y2="928.9219"/><line style="stroke:#181818;stroke-width:1.0;" x1="772.75" x2="1150.375" y1="928.9219" y2="928.9219"/><polygon fill="#181818" points="1140.375,924.9219,1150.375,928.9219,1140.375,932.9219,1144.375,928.9219" style="stroke:#181818;stroke-width:1.0;"/><line style="stroke:#181818;stroke-width:1.0;" x1="1552" x2="1552" y1="351.1719" y2="928.9219"/><line style="stroke:#181818;stroke-width:1.0;" x1="1552" x2="1174.375" y1="928.9219" y2="928.9219"/><polygon fill="#181818" points="1184.375,924.9219,1174.375,928.9219,1184.375,932.9219,1180.375,928.9219" style="stroke:#181818;stroke-width:1.0;"/><line style="stroke:#181818;stroke-width:1.0;" x1="1162.375" x2="1162.375" y1="209.2344" y2="229.2344"/><polygon fill="#181818" points="1158.375,219.2344,1162.375,229.2344,1166.375,219.2344,1162.375,223.2344" style="stroke:#181818;stroke-width:1.0;"/><line style="stroke:#181818;stroke-width:1.0;" x1="1383.6875" x2="1162.375" y1="153.2656" y2="153.2656"/><line style="stroke:#181818;stroke-width:1.0;" x1="1162.375" x2="1162.375" y1="153.2656" y2="175.2656"/><polygon fill="#181818" points="1158.375,165.2656,1162.375,175.2656,1166.375,165.2656,1162.375,169.2656" style="stroke:#181818;stroke-width:1.0;"/><line style="stroke:#181818;stroke-width:1.0;" x1="1727.6875" x2="1929" y1="153.2656" y2="153.2656"/><line style="stroke:#181818;stroke-width:1.0;" x1="1929" x2="1929" y1="153.2656" y2="175.2656"/><polygon fill="#181818" points="1925,165.2656,1929,175.2656,1933,165.2656,1929,169.2656" style="stroke:#181818;stroke-width:1.0;"/><line style="stroke:#181818;stroke-width:1.0;" x1="1162.375" x2="1162.375" y1="940.9219" y2="958.9219"/><line style="stroke:#181818;stroke-width:1.0;" x1="1162.375" x2="1543.6875" y1="958.9219" y2="958.9219"/><polygon fill="#181818" points="1533.6875,954.9219,1543.6875,958.9219,1533.6875,962.9219,1537.6875,958.9219" style="stroke:#181818;stroke-width:1.0;"/><line style="stroke:#181818;stroke-width:1.0;" x1="1929" x2="1929" y1="209.2344" y2="958.9219"/><line style="stroke:#181818;stroke-width:1.0;" x1="1929" x2="1567.6875" y1="958.9219" y2="958.9219"/><polygon fill="#181818" points="1577.6875,954.9219,1567.6875,958.9219,1577.6875,962.9219,1573.6875,958.9219" style="stroke:#181818;stroke-width:1.0;"/><line style="stroke:#181818;stroke-width:1.0;" x1="1555.6875" x2="1555.6875" y1="121.2656" y2="141.2656"/><polygon fill="#181818" points="1551.6875,131.2656,1555.6875,141.2656,1559.6875,131.2656,1555.6875,135.2656" style="stroke:#181818;stroke-width:1.0;"/><line style="stroke:#181818;stroke-width:1.0;" x1="1555.6875" x2="1555.6875" y1="970.9219" y2="990.9219"/><polygon fill="#181818" points="1551.6875,980.9219,1555.6875,990.9219,1559.6875,980.9219,1555.6875,984.9219" style="stroke:#181818;stroke-width:1.0;"/><!--SRC=[jPN1Rjim38RlVWeYboP0smU8WG43jfrs6Beda6KwrY1BdaYxyzkFakB6SHsiwD1RPEd_IFqa5JPi4JxtVV2ZSIVm0Pxm5sgEY- -eHfJrxm69gIY8LU3Y-7FeCOo6v2oXbRC4kqp0YtubtfL5OHhOlqjx06xHmNv2EXG0Hn5OenKRxo0W1uCZ4YYmXXXy0pR9mraED5ITOSOQgWcmwwsV4AaKKine2QD1QoHg1ckd1VcQjyf6ybbSIYi7klMUCEQpr05x-JaQV2wJweORAzMhOAlhruPwgoQ26baPAtSqhl6XoxkgyWD7mXalsrVqSaOk4iavpfVEM8AzMDE2aZYAaUwX7a8ASG_ArQ9HvDrX2nSDYS2KnMp-tOnlfM8-J0cYXn3GCLJAAgVn5anxHuDbU3RSIc2Ben8He-gWmwx2GB6HUYyMcLpb3RTLRZbAMVtByEiSqgJK8jM-woJV52uRGD2yi9KjB_BhXjK-r3doV5HirePInQ8HP_0DGDmUN5pXYY8T5jS1gOyJF5uCNw2-dZ-18N2UJMEaAxXL_DeBQANW5OeTPx_g1IVFg8cTLm-fjPhWktMPLyL4AuEnTtxRsf2cVwCevVigaNdYsHjAyNBs_sfnmNnSCNACIp7GrQOfjknTpmx-CLlaFFBHp_ZwPUmClKOUl-Jt1Z04ONPoN9qGTj_osvEUkFnghXxDH_WX7mJ5STfFoZYmObfutELm3m-VOEir55DQ3E3xkOmvhsLMnpVeiah-m7p_5m00]--></g></svg>