<?xml version="1.0" encoding="us-ascii" standalone="no"?><svg xmlns="http://www.w3.org/2000/svg" xmlns:xlink="http://www.w3.org/1999/xlink" contentStyleType="text/css" height="694px" preserveAspectRatio="none" style="width:1270px;height:694px;background:#FFFFFF;" version="1.1" viewBox="0 0 1270 694" width="1270px" zoomAndPan="magnify"><defs/><g><text fill="#000000" font-family="sans-serif" font-size="14" font-weight="bold" lengthAdjust="spacing" textLength="254" x="506.5" y="32.9951">Viewing Productivity Statistics</text><ellipse cx="829.25" cy="57.2969" fill="#222222" rx="10" ry="10" style="stroke:#222222;stroke-width:1.0;"/><rect fill="#F1F1F1" height="33.9688" rx="12.5" ry="12.5" style="stroke:#181818;stroke-width:0.5;" width="308" x="675.25" y="87.2969"/><text fill="#000000" font-family="sans-serif" font-size="12" lengthAdjust="spacing" textLength="288" x="685.25" y="108.4355">Supervisor selects "View Productivity Statistics"</text><polygon fill="#F1F1F1" points="693.25,141.2656,965.25,141.2656,977.25,153.2656,965.25,165.2656,693.25,165.2656,681.25,153.2656,693.25,141.2656" style="stroke:#181818;stroke-width:0.5;"/><text fill="#000000" font-family="sans-serif" font-size="11" lengthAdjust="spacing" textLength="272" x="693.25" y="157.0737">Supervisor selects "View Productivity Statistics"</text><text fill="#000000" font-family="sans-serif" font-size="11" lengthAdjust="spacing" textLength="21" x="660.25" y="150.6714">yes</text><text fill="#000000" font-family="sans-serif" font-size="11" lengthAdjust="spacing" textLength="14" x="977.25" y="150.6714">no</text><rect fill="#F1F1F1" height="33.9688" rx="12.5" ry="12.5" style="stroke:#181818;stroke-width:0.5;" width="446" x="269.5" y="175.2656"/><text fill="#000000" font-family="sans-serif" font-size="12" lengthAdjust="spacing" textLength="426" x="279.5" y="196.4043">Application retrieves productivity statistics for the team or department</text><polygon fill="#F1F1F1" points="370.5,229.2344,614.5,229.2344,626.5,241.2344,614.5,253.2344,370.5,253.2344,358.5,241.2344,370.5,229.2344" style="stroke:#181818;stroke-width:0.5;"/><text fill="#000000" font-family="sans-serif" font-size="11" lengthAdjust="spacing" textLength="244" x="370.5" y="245.0425">Application successfully retrieves statistics</text><text fill="#000000" font-family="sans-serif" font-size="11" lengthAdjust="spacing" textLength="21" x="337.5" y="238.6401">yes</text><text fill="#000000" font-family="sans-serif" font-size="11" lengthAdjust="spacing" textLength="14" x="626.5" y="238.6401">no</text><rect fill="#F1F1F1" height="47.9375" rx="12.5" ry="12.5" style="stroke:#181818;stroke-width:0.5;" width="447" x="11" y="263.2344"/><text fill="#000000" font-family="sans-serif" font-size="12" lengthAdjust="spacing" textLength="427" x="21" y="284.373">Application calculates and displays the following productivity statistics:</text><text fill="#000000" font-family="sans-serif" font-size="12" lengthAdjust="spacing" textLength="264" x="21" y="298.3418">- Average working hours per team member</text><rect fill="#F1F1F1" height="33.9688" rx="12.5" ry="12.5" style="stroke:#181818;stroke-width:0.5;" width="162" x="153.5" y="331.1719"/><text fill="#000000" font-family="sans-serif" font-size="12" lengthAdjust="spacing" textLength="138" x="167.5" y="352.3105">Total completed tasks;</text><rect fill="#F1F1F1" height="33.9688" rx="12.5" ry="12.5" style="stroke:#181818;stroke-width:0.5;" width="244" x="112.5" y="385.1406"/><text fill="#000000" font-family="sans-serif" font-size="12" lengthAdjust="spacing" textLength="220" x="126.5" y="406.2793">Completed tasks per team member;</text><rect fill="#F1F1F1" height="33.9688" rx="12.5" ry="12.5" style="stroke:#181818;stroke-width:0.5;" width="175" x="147" y="439.1094"/><text fill="#000000" font-family="sans-serif" font-size="12" lengthAdjust="spacing" textLength="151" x="161" y="460.248">Project completion rates;</text><rect fill="#F1F1F1" height="33.9688" rx="12.5" ry="12.5" style="stroke:#181818;stroke-width:0.5;" width="134" x="167.5" y="493.0781"/><text fill="#000000" font-family="sans-serif" font-size="12" lengthAdjust="spacing" textLength="110" x="181.5" y="514.2168">Efficiency metrics;</text><rect fill="#F1F1F1" height="33.9688" rx="12.5" ry="12.5" style="stroke:#181818;stroke-width:0.5;" width="277" x="96" y="547.0469"/><text fill="#000000" font-family="sans-serif" font-size="12" lengthAdjust="spacing" textLength="253" x="110" y="568.1855">Any other relevant productivity indicators;</text><rect fill="#F1F1F1" height="33.9688" rx="12.5" ry="12.5" style="stroke:#181818;stroke-width:0.5;" width="545" x="478" y="263.2344"/><text fill="#000000" font-family="sans-serif" font-size="12" lengthAdjust="spacing" textLength="525" x="488" y="284.373">Display error message "Failed to retrieve productivity statistics. Please try again later."</text><polygon fill="#F1F1F1" points="492.5,587.0156,504.5,599.0156,492.5,611.0156,480.5,599.0156,492.5,587.0156" style="stroke:#181818;stroke-width:0.5;"/><rect fill="#F1F1F1" height="33.9688" rx="12.5" ry="12.5" style="stroke:#181818;stroke-width:0.5;" width="226" x="1033" y="175.2656"/><text fill="#000000" font-family="sans-serif" font-size="12" lengthAdjust="spacing" textLength="206" x="1043" y="196.4043">Supervisor selects another option</text><polygon fill="#F1F1F1" points="829.25,617.0156,841.25,629.0156,829.25,641.0156,817.25,629.0156,829.25,617.0156" style="stroke:#181818;stroke-width:0.5;"/><ellipse cx="829.25" cy="672.0156" fill="none" rx="11" ry="11" style="stroke:#222222;stroke-width:1.0;"/><ellipse cx="829.25" cy="672.0156" fill="#222222" rx="6" ry="6" style="stroke:#222222;stroke-width:1.0;"/><line style="stroke:#181818;stroke-width:1.0;" x1="829.25" x2="829.25" y1="67.2969" y2="87.2969"/><polygon fill="#181818" points="825.25,77.2969,829.25,87.2969,833.25,77.2969,829.25,81.2969" style="stroke:#181818;stroke-width:1.0;"/><line style="stroke:#181818;stroke-width:1.0;" x1="234.5" x2="234.5" y1="311.1719" y2="331.1719"/><polygon fill="#181818" points="230.5,321.1719,234.5,331.1719,238.5,321.1719,234.5,325.1719" style="stroke:#181818;stroke-width:1.0;"/><line style="stroke:#181818;stroke-width:1.0;" x1="234.5" x2="234.5" y1="365.1406" y2="385.1406"/><polygon fill="#181818" points="230.5,375.1406,234.5,385.1406,238.5,375.1406,234.5,379.1406" style="stroke:#181818;stroke-width:1.0;"/><line style="stroke:#181818;stroke-width:1.0;" x1="234.5" x2="234.5" y1="419.1094" y2="439.1094"/><polygon fill="#181818" points="230.5,429.1094,234.5,439.1094,238.5,429.1094,234.5,433.1094" style="stroke:#181818;stroke-width:1.0;"/><line style="stroke:#181818;stroke-width:1.0;" x1="234.5" x2="234.5" y1="473.0781" y2="493.0781"/><polygon fill="#181818" points="230.5,483.0781,234.5,493.0781,238.5,483.0781,234.5,487.0781" style="stroke:#181818;stroke-width:1.0;"/><line style="stroke:#181818;stroke-width:1.0;" x1="234.5" x2="234.5" y1="527.0469" y2="547.0469"/><polygon fill="#181818" points="230.5,537.0469,234.5,547.0469,238.5,537.0469,234.5,541.0469" style="stroke:#181818;stroke-width:1.0;"/><line style="stroke:#181818;stroke-width:1.0;" x1="358.5" x2="234.5" y1="241.2344" y2="241.2344"/><line style="stroke:#181818;stroke-width:1.0;" x1="234.5" x2="234.5" y1="241.2344" y2="263.2344"/><polygon fill="#181818" points="230.5,253.2344,234.5,263.2344,238.5,253.2344,234.5,257.2344" style="stroke:#181818;stroke-width:1.0;"/><line style="stroke:#181818;stroke-width:1.0;" x1="626.5" x2="750.5" y1="241.2344" y2="241.2344"/><line style="stroke:#181818;stroke-width:1.0;" x1="750.5" x2="750.5" y1="241.2344" y2="263.2344"/><polygon fill="#181818" points="746.5,253.2344,750.5,263.2344,754.5,253.2344,750.5,257.2344" style="stroke:#181818;stroke-width:1.0;"/><line style="stroke:#181818;stroke-width:1.0;" x1="234.5" x2="234.5" y1="581.0156" y2="599.0156"/><line style="stroke:#181818;stroke-width:1.0;" x1="234.5" x2="480.5" y1="599.0156" y2="599.0156"/><polygon fill="#181818" points="470.5,595.0156,480.5,599.0156,470.5,603.0156,474.5,599.0156" style="stroke:#181818;stroke-width:1.0;"/><line style="stroke:#181818;stroke-width:1.0;" x1="750.5" x2="750.5" y1="297.2031" y2="599.0156"/><line style="stroke:#181818;stroke-width:1.0;" x1="750.5" x2="504.5" y1="599.0156" y2="599.0156"/><polygon fill="#181818" points="514.5,595.0156,504.5,599.0156,514.5,603.0156,510.5,599.0156" style="stroke:#181818;stroke-width:1.0;"/><line style="stroke:#181818;stroke-width:1.0;" x1="492.5" x2="492.5" y1="209.2344" y2="229.2344"/><polygon fill="#181818" points="488.5,219.2344,492.5,229.2344,496.5,219.2344,492.5,223.2344" style="stroke:#181818;stroke-width:1.0;"/><line style="stroke:#181818;stroke-width:1.0;" x1="681.25" x2="492.5" y1="153.2656" y2="153.2656"/><line style="stroke:#181818;stroke-width:1.0;" x1="492.5" x2="492.5" y1="153.2656" y2="175.2656"/><polygon fill="#181818" points="488.5,165.2656,492.5,175.2656,496.5,165.2656,492.5,169.2656" style="stroke:#181818;stroke-width:1.0;"/><line style="stroke:#181818;stroke-width:1.0;" x1="977.25" x2="1146" y1="153.2656" y2="153.2656"/><line style="stroke:#181818;stroke-width:1.0;" x1="1146" x2="1146" y1="153.2656" y2="175.2656"/><polygon fill="#181818" points="1142,165.2656,1146,175.2656,1150,165.2656,1146,169.2656" style="stroke:#181818;stroke-width:1.0;"/><line style="stroke:#181818;stroke-width:1.0;" x1="492.5" x2="492.5" y1="611.0156" y2="629.0156"/><line style="stroke:#181818;stroke-width:1.0;" x1="492.5" x2="817.25" y1="629.0156" y2="629.0156"/><polygon fill="#181818" points="807.25,625.0156,817.25,629.0156,807.25,633.0156,811.25,629.0156" style="stroke:#181818;stroke-width:1.0;"/><line style="stroke:#181818;stroke-width:1.0;" x1="1146" x2="1146" y1="209.2344" y2="629.0156"/><line style="stroke:#181818;stroke-width:1.0;" x1="1146" x2="841.25" y1="629.0156" y2="629.0156"/><polygon fill="#181818" points="851.25,625.0156,841.25,629.0156,851.25,633.0156,847.25,629.0156" style="stroke:#181818;stroke-width:1.0;"/><line style="stroke:#181818;stroke-width:1.0;" x1="829.25" x2="829.25" y1="121.2656" y2="141.2656"/><polygon fill="#181818" points="825.25,131.2656,829.25,141.2656,833.25,131.2656,829.25,135.2656" style="stroke:#181818;stroke-width:1.0;"/><line style="stroke:#181818;stroke-width:1.0;" x1="829.25" x2="829.25" y1="641.0156" y2="661.0156"/><polygon fill="#181818" points="825.25,651.0156,829.25,661.0156,833.25,651.0156,829.25,655.0156" style="stroke:#181818;stroke-width:1.0;"/><!--SRC=[bPAzRiCm38HtFmMHAHcQ1qYce3zpWHJTLPbEsCYIGD8E_FQbd9ywGJDqCqpTyUwJb3GWV18UAUxWdLFTUQMUT82jEYLHyb9LeewrMcsxZDoJ90R1W5u5PaNxI3XRLzJ0_D-o1UWU8ym7b4K5iDha7CZRE4LWL2RiKI1FrN9LGsDxJ0-AhWNxhZ5R-XQZhisi19hwIUSzYZHT2CF4_DVlBinT7E-2xu9JaxXOGqsIWnja3D2a4D88za7KrUZt19iUsUqGZeaFvVW-TMpza4yTMco_aDVdmnz9NG2VsXnGiGPrSf3ByFdszoCF0_zjzt1n6RcM3fVvQzEG9un-CA4XyTV99WwGh1mRgu2zYtfRZc9Tq2GU5HW4OHxJ6TpBYGuWizrBQzXBwzcRer0Ifol_Hy2My1xGcQVo06xdA49XpylPkCrsDzLqvrylriLJ_fHBxtLrKjaJJ_a7]--></g></svg>