<?xml version="1.0" encoding="us-ascii" standalone="no"?><svg xmlns="http://www.w3.org/2000/svg" xmlns:xlink="http://www.w3.org/1999/xlink" contentStyleType="text/css" height="1357px" preserveAspectRatio="none" style="width:2598px;height:1357px;background:#FFFFFF;" version="1.1" viewBox="0 0 2598 1357" width="2598px" zoomAndPan="magnify"><defs/><g><text fill="#000000" font-family="sans-serif" font-size="14" font-weight="bold" lengthAdjust="spacing" textLength="267" x="1164" y="32.9951">Recording Clock In and Clock Out</text><ellipse cx="2099.1563" cy="57.2969" fill="#222222" rx="10" ry="10" style="stroke:#222222;stroke-width:1.0;"/><rect fill="#F1F1F1" height="33.9688" rx="12.5" ry="12.5" style="stroke:#181818;stroke-width:0.5;" width="261" x="1968.6563" y="87.2969"/><text fill="#000000" font-family="sans-serif" font-size="12" lengthAdjust="spacing" textLength="241" x="1978.6563" y="108.4355">User opens the Time Master application</text><polygon fill="#F1F1F1" points="1971.6563,141.2656,2226.6563,141.2656,2238.6563,153.2656,2226.6563,165.2656,1971.6563,165.2656,1959.6563,153.2656,1971.6563,141.2656" style="stroke:#181818;stroke-width:0.5;"/><text fill="#000000" font-family="sans-serif" font-size="11" lengthAdjust="spacing" textLength="255" x="1971.6563" y="157.0737">User selects "Record Clock In and Clock Out"</text><text fill="#000000" font-family="sans-serif" font-size="11" lengthAdjust="spacing" textLength="21" x="1938.6563" y="150.6714">yes</text><text fill="#000000" font-family="sans-serif" font-size="11" lengthAdjust="spacing" textLength="14" x="2238.6563" y="150.6714">no</text><rect fill="#F1F1F1" height="33.9688" rx="12.5" ry="12.5" style="stroke:#181818;stroke-width:0.5;" width="306" x="1552.8125" y="175.2656"/><text fill="#000000" font-family="sans-serif" font-size="12" lengthAdjust="spacing" textLength="286" x="1562.8125" y="196.4043">Application checks user's input format (validity)</text><polygon fill="#F1F1F1" points="1649.3125,229.2344,1762.3125,229.2344,1774.3125,241.2344,1762.3125,253.2344,1649.3125,253.2344,1637.3125,241.2344,1649.3125,229.2344" style="stroke:#181818;stroke-width:0.5;"/><text fill="#000000" font-family="sans-serif" font-size="11" lengthAdjust="spacing" textLength="113" x="1649.3125" y="245.0425">Input format is valid</text><text fill="#000000" font-family="sans-serif" font-size="11" lengthAdjust="spacing" textLength="21" x="1616.3125" y="238.6401">yes</text><text fill="#000000" font-family="sans-serif" font-size="11" lengthAdjust="spacing" textLength="14" x="1774.3125" y="238.6401">no</text><rect fill="#F1F1F1" height="33.9688" rx="12.5" ry="12.5" style="stroke:#181818;stroke-width:0.5;" width="342" x="1068.625" y="263.2344"/><text fill="#000000" font-family="sans-serif" font-size="12" lengthAdjust="spacing" textLength="322" x="1078.625" y="284.373">Display screen to enter clock in time (HH:mm AM/PM)</text><rect fill="#F1F1F1" height="33.9688" rx="12.5" ry="12.5" style="stroke:#181818;stroke-width:0.5;" width="172" x="1153.625" y="317.2031"/><text fill="#000000" font-family="sans-serif" font-size="12" lengthAdjust="spacing" textLength="152" x="1163.625" y="338.3418">User enters clock in time</text><polygon fill="#F1F1F1" points="1160.125,371.1719,1319.125,371.1719,1331.125,383.1719,1319.125,395.1719,1160.125,395.1719,1148.125,383.1719,1160.125,371.1719" style="stroke:#181818;stroke-width:0.5;"/><text fill="#000000" font-family="sans-serif" font-size="11" lengthAdjust="spacing" textLength="159" x="1160.125" y="386.98">Clock in time format is valid</text><text fill="#000000" font-family="sans-serif" font-size="11" lengthAdjust="spacing" textLength="21" x="1127.125" y="380.5776">yes</text><text fill="#000000" font-family="sans-serif" font-size="11" lengthAdjust="spacing" textLength="14" x="1331.125" y="380.5776">no</text><rect fill="#F1F1F1" height="33.9688" rx="12.5" ry="12.5" style="stroke:#181818;stroke-width:0.5;" width="366" x="660.25" y="405.1719"/><text fill="#000000" font-family="sans-serif" font-size="12" lengthAdjust="spacing" textLength="346" x="670.25" y="426.3105">Parse clock in time and store as ClockInTime (timestamp)</text><rect fill="#F1F1F1" height="33.9688" rx="12.5" ry="12.5" style="stroke:#181818;stroke-width:0.5;" width="289" x="698.75" y="459.1406"/><text fill="#000000" font-family="sans-serif" font-size="12" lengthAdjust="spacing" textLength="269" x="708.75" y="480.2793">Retrieve UserID and Date from user's profile</text><rect fill="#F1F1F1" height="33.9688" rx="12.5" ry="12.5" style="stroke:#181818;stroke-width:0.5;" width="371" x="657.75" y="513.1094"/><text fill="#000000" font-family="sans-serif" font-size="12" lengthAdjust="spacing" textLength="351" x="667.75" y="534.248">Save ClockInTime, UserID, and Date in user's work record</text><rect fill="#F1F1F1" height="33.9688" rx="12.5" ry="12.5" style="stroke:#181818;stroke-width:0.5;" width="432" x="627.25" y="567.0781"/><text fill="#000000" font-family="sans-serif" font-size="12" lengthAdjust="spacing" textLength="412" x="637.25" y="588.2168">Display confirmation message "Clock In time recorded successfully"</text><polygon fill="#F1F1F1" points="733.25,621.0469,953.25,621.0469,965.25,633.0469,953.25,645.0469,733.25,645.0469,721.25,633.0469,733.25,621.0469" style="stroke:#181818;stroke-width:0.5;"/><text fill="#000000" font-family="sans-serif" font-size="11" lengthAdjust="spacing" textLength="220" x="733.25" y="636.855">User chooses to record Clock Out time</text><text fill="#000000" font-family="sans-serif" font-size="11" lengthAdjust="spacing" textLength="21" x="700.25" y="630.4526">yes</text><text fill="#000000" font-family="sans-serif" font-size="11" lengthAdjust="spacing" textLength="14" x="965.25" y="630.4526">no</text><rect fill="#F1F1F1" height="33.9688" rx="12.5" ry="12.5" style="stroke:#181818;stroke-width:0.5;" width="351" x="315.5" y="655.0469"/><text fill="#000000" font-family="sans-serif" font-size="12" lengthAdjust="spacing" textLength="331" x="325.5" y="676.1855">Display screen to enter clock out time (HH:mm AM/PM)</text><rect fill="#F1F1F1" height="33.9688" rx="12.5" ry="12.5" style="stroke:#181818;stroke-width:0.5;" width="181" x="400.5" y="709.0156"/><text fill="#000000" font-family="sans-serif" font-size="12" lengthAdjust="spacing" textLength="161" x="410.5" y="730.1543">User enters clock out time</text><polygon fill="#F1F1F1" points="407.5,762.9844,574.5,762.9844,586.5,774.9844,574.5,786.9844,407.5,786.9844,395.5,774.9844,407.5,762.9844" style="stroke:#181818;stroke-width:0.5;"/><text fill="#000000" font-family="sans-serif" font-size="11" lengthAdjust="spacing" textLength="167" x="407.5" y="778.7925">Clock out time format is valid</text><text fill="#000000" font-family="sans-serif" font-size="11" lengthAdjust="spacing" textLength="21" x="374.5" y="772.3901">yes</text><text fill="#000000" font-family="sans-serif" font-size="11" lengthAdjust="spacing" textLength="14" x="586.5" y="772.3901">no</text><rect fill="#F1F1F1" height="33.9688" rx="12.5" ry="12.5" style="stroke:#181818;stroke-width:0.5;" width="386" x="39.5" y="796.9844"/><text fill="#000000" font-family="sans-serif" font-size="12" lengthAdjust="spacing" textLength="366" x="49.5" y="818.123">Parse clock out time and store as ClockOutTime (timestamp)</text><rect fill="#F1F1F1" height="33.9688" rx="12.5" ry="12.5" style="stroke:#181818;stroke-width:0.5;" width="289" x="88" y="850.9531"/><text fill="#000000" font-family="sans-serif" font-size="12" lengthAdjust="spacing" textLength="269" x="98" y="872.0918">Retrieve UserID and Date from user's profile</text><rect fill="#F1F1F1" height="33.9688" rx="12.5" ry="12.5" style="stroke:#181818;stroke-width:0.5;" width="382" x="41.5" y="904.9219"/><text fill="#000000" font-family="sans-serif" font-size="12" lengthAdjust="spacing" textLength="362" x="51.5" y="926.0605">Save ClockOutTime, UserID, and Date in user's work record</text><rect fill="#F1F1F1" height="33.9688" rx="12.5" ry="12.5" style="stroke:#181818;stroke-width:0.5;" width="291" x="87" y="958.8906"/><text fill="#000000" font-family="sans-serif" font-size="12" lengthAdjust="spacing" textLength="271" x="97" y="980.0293">Calculate work duration as Duration (HH:mm)</text><rect fill="#F1F1F1" height="33.9688" rx="12.5" ry="12.5" style="stroke:#181818;stroke-width:0.5;" width="238" x="113.5" y="1012.8594"/><text fill="#000000" font-family="sans-serif" font-size="12" lengthAdjust="spacing" textLength="218" x="123.5" y="1033.998">Save Duration in user's work record</text><rect fill="#F1F1F1" height="33.9688" rx="12.5" ry="12.5" style="stroke:#181818;stroke-width:0.5;" width="443" x="11" y="1066.8281"/><text fill="#000000" font-family="sans-serif" font-size="12" lengthAdjust="spacing" textLength="423" x="21" y="1087.9668">Display confirmation message "Clock Out time recorded successfully"</text><rect fill="#F1F1F1" height="33.9688" rx="12.5" ry="12.5" style="stroke:#181818;stroke-width:0.5;" width="551" x="474" y="796.9844"/><text fill="#000000" font-family="sans-serif" font-size="12" lengthAdjust="spacing" textLength="531" x="484" y="818.123">Display error message "Invalid Clock Out time format. Please use HH:mm AM/PM format"</text><rect fill="#F1F1F1" height="33.9688" rx="12.5" ry="12.5" style="stroke:#181818;stroke-width:0.5;" width="274" x="612.5" y="850.9531"/><text fill="#000000" font-family="sans-serif" font-size="12" lengthAdjust="spacing" textLength="254" x="622.5" y="872.0918">-&gt; Display screen to enter clock out time;</text><polygon fill="#F1F1F1" points="491,1106.7969,503,1118.7969,491,1130.7969,479,1118.7969,491,1106.7969" style="stroke:#181818;stroke-width:0.5;"/><rect fill="#F1F1F1" height="33.9688" rx="12.5" ry="12.5" style="stroke:#181818;stroke-width:0.5;" width="281" x="1055" y="655.0469"/><text fill="#000000" font-family="sans-serif" font-size="12" lengthAdjust="spacing" textLength="261" x="1065" y="676.1855">User chooses not to record Clock Out time</text><polygon fill="#F1F1F1" points="843.25,1136.7969,855.25,1148.7969,843.25,1160.7969,831.25,1148.7969,843.25,1136.7969" style="stroke:#181818;stroke-width:0.5;"/><rect fill="#F1F1F1" height="33.9688" rx="12.5" ry="12.5" style="stroke:#181818;stroke-width:0.5;" width="540" x="1366" y="405.1719"/><text fill="#000000" font-family="sans-serif" font-size="12" lengthAdjust="spacing" textLength="520" x="1376" y="426.3105">Display error message "Invalid Clock In time format. Please use HH:mm AM/PM format"</text><rect fill="#F1F1F1" height="33.9688" rx="12.5" ry="12.5" style="stroke:#181818;stroke-width:0.5;" width="265" x="1503.5" y="459.1406"/><text fill="#000000" font-family="sans-serif" font-size="12" lengthAdjust="spacing" textLength="245" x="1513.5" y="480.2793">-&gt; Display screen to enter clock in time;</text><polygon fill="#F1F1F1" points="1239.625,1166.7969,1251.625,1178.7969,1239.625,1190.7969,1227.625,1178.7969,1239.625,1166.7969" style="stroke:#181818;stroke-width:0.5;"/><rect fill="#F1F1F1" height="33.9688" rx="12.5" ry="12.5" style="stroke:#181818;stroke-width:0.5;" width="472" x="1916" y="263.2344"/><text fill="#000000" font-family="sans-serif" font-size="12" lengthAdjust="spacing" textLength="452" x="1926" y="284.373">Display error message "Invalid input format. Please follow the instructions."</text><rect fill="#F1F1F1" height="33.9688" rx="12.5" ry="12.5" style="stroke:#181818;stroke-width:0.5;" width="316" x="1994" y="317.2031"/><text fill="#000000" font-family="sans-serif" font-size="12" lengthAdjust="spacing" textLength="296" x="2004" y="338.3418">-&gt; User selects "Record Clock In and Clock Out";</text><polygon fill="#F1F1F1" points="1705.8125,1196.7969,1717.8125,1208.7969,1705.8125,1220.7969,1693.8125,1208.7969,1705.8125,1196.7969" style="stroke:#181818;stroke-width:0.5;"/><rect fill="#F1F1F1" height="33.9688" rx="12.5" ry="12.5" style="stroke:#181818;stroke-width:0.5;" width="189" x="2398" y="175.2656"/><text fill="#000000" font-family="sans-serif" font-size="12" lengthAdjust="spacing" textLength="169" x="2408" y="196.4043">User selects another option</text><polygon fill="#F1F1F1" points="2099.1563,1226.7969,2111.1563,1238.7969,2099.1563,1250.7969,2087.1563,1238.7969,2099.1563,1226.7969" style="stroke:#181818;stroke-width:0.5;"/><rect fill="#F1F1F1" height="33.9688" rx="12.5" ry="12.5" style="stroke:#181818;stroke-width:0.5;" width="340" x="1929.1563" y="1270.7969"/><text fill="#000000" font-family="sans-serif" font-size="12" lengthAdjust="spacing" textLength="320" x="1939.1563" y="1291.9355">Application saves changes to the user's work record</text><ellipse cx="2099.1563" cy="1335.7656" fill="none" rx="11" ry="11" style="stroke:#222222;stroke-width:1.0;"/><ellipse cx="2099.1563" cy="1335.7656" fill="#222222" rx="6" ry="6" style="stroke:#222222;stroke-width:1.0;"/><line style="stroke:#181818;stroke-width:1.0;" x1="2099.1563" x2="2099.1563" y1="67.2969" y2="87.2969"/><polygon fill="#181818" points="2095.1563,77.2969,2099.1563,87.2969,2103.1563,77.2969,2099.1563,81.2969" style="stroke:#181818;stroke-width:1.0;"/><line style="stroke:#181818;stroke-width:1.0;" x1="1239.625" x2="1239.625" y1="297.2031" y2="317.2031"/><polygon fill="#181818" points="1235.625,307.2031,1239.625,317.2031,1243.625,307.2031,1239.625,311.2031" style="stroke:#181818;stroke-width:1.0;"/><line style="stroke:#181818;stroke-width:1.0;" x1="843.25" x2="843.25" y1="439.1406" y2="459.1406"/><polygon fill="#181818" points="839.25,449.1406,843.25,459.1406,847.25,449.1406,843.25,453.1406" style="stroke:#181818;stroke-width:1.0;"/><line style="stroke:#181818;stroke-width:1.0;" x1="843.25" x2="843.25" y1="493.1094" y2="513.1094"/><polygon fill="#181818" points="839.25,503.1094,843.25,513.1094,847.25,503.1094,843.25,507.1094" style="stroke:#181818;stroke-width:1.0;"/><line style="stroke:#181818;stroke-width:1.0;" x1="843.25" x2="843.25" y1="547.0781" y2="567.0781"/><polygon fill="#181818" points="839.25,557.0781,843.25,567.0781,847.25,557.0781,843.25,561.0781" style="stroke:#181818;stroke-width:1.0;"/><line style="stroke:#181818;stroke-width:1.0;" x1="491" x2="491" y1="689.0156" y2="709.0156"/><polygon fill="#181818" points="487,699.0156,491,709.0156,495,699.0156,491,703.0156" style="stroke:#181818;stroke-width:1.0;"/><line style="stroke:#181818;stroke-width:1.0;" x1="232.5" x2="232.5" y1="830.9531" y2="850.9531"/><polygon fill="#181818" points="228.5,840.9531,232.5,850.9531,236.5,840.9531,232.5,844.9531" style="stroke:#181818;stroke-width:1.0;"/><line style="stroke:#181818;stroke-width:1.0;" x1="232.5" x2="232.5" y1="884.9219" y2="904.9219"/><polygon fill="#181818" points="228.5,894.9219,232.5,904.9219,236.5,894.9219,232.5,898.9219" style="stroke:#181818;stroke-width:1.0;"/><line style="stroke:#181818;stroke-width:1.0;" x1="232.5" x2="232.5" y1="938.8906" y2="958.8906"/><polygon fill="#181818" points="228.5,948.8906,232.5,958.8906,236.5,948.8906,232.5,952.8906" style="stroke:#181818;stroke-width:1.0;"/><line style="stroke:#181818;stroke-width:1.0;" x1="232.5" x2="232.5" y1="992.8594" y2="1012.8594"/><polygon fill="#181818" points="228.5,1002.8594,232.5,1012.8594,236.5,1002.8594,232.5,1006.8594" style="stroke:#181818;stroke-width:1.0;"/><line style="stroke:#181818;stroke-width:1.0;" x1="232.5" x2="232.5" y1="1046.8281" y2="1066.8281"/><polygon fill="#181818" points="228.5,1056.8281,232.5,1066.8281,236.5,1056.8281,232.5,1060.8281" style="stroke:#181818;stroke-width:1.0;"/><line style="stroke:#181818;stroke-width:1.0;" x1="749.5" x2="749.5" y1="830.9531" y2="850.9531"/><polygon fill="#181818" points="745.5,840.9531,749.5,850.9531,753.5,840.9531,749.5,844.9531" style="stroke:#181818;stroke-width:1.0;"/><line style="stroke:#181818;stroke-width:1.0;" x1="395.5" x2="232.5" y1="774.9844" y2="774.9844"/><line style="stroke:#181818;stroke-width:1.0;" x1="232.5" x2="232.5" y1="774.9844" y2="796.9844"/><polygon fill="#181818" points="228.5,786.9844,232.5,796.9844,236.5,786.9844,232.5,790.9844" style="stroke:#181818;stroke-width:1.0;"/><line style="stroke:#181818;stroke-width:1.0;" x1="586.5" x2="749.5" y1="774.9844" y2="774.9844"/><line style="stroke:#181818;stroke-width:1.0;" x1="749.5" x2="749.5" y1="774.9844" y2="796.9844"/><polygon fill="#181818" points="745.5,786.9844,749.5,796.9844,753.5,786.9844,749.5,790.9844" style="stroke:#181818;stroke-width:1.0;"/><line style="stroke:#181818;stroke-width:1.0;" x1="232.5" x2="232.5" y1="1100.7969" y2="1118.7969"/><line style="stroke:#181818;stroke-width:1.0;" x1="232.5" x2="479" y1="1118.7969" y2="1118.7969"/><polygon fill="#181818" points="469,1114.7969,479,1118.7969,469,1122.7969,473,1118.7969" style="stroke:#181818;stroke-width:1.0;"/><line style="stroke:#181818;stroke-width:1.0;" x1="749.5" x2="749.5" y1="884.9219" y2="1118.7969"/><line style="stroke:#181818;stroke-width:1.0;" x1="749.5" x2="503" y1="1118.7969" y2="1118.7969"/><polygon fill="#181818" points="513,1114.7969,503,1118.7969,513,1122.7969,509,1118.7969" style="stroke:#181818;stroke-width:1.0;"/><line style="stroke:#181818;stroke-width:1.0;" x1="491" x2="491" y1="742.9844" y2="762.9844"/><polygon fill="#181818" points="487,752.9844,491,762.9844,495,752.9844,491,756.9844" style="stroke:#181818;stroke-width:1.0;"/><line style="stroke:#181818;stroke-width:1.0;" x1="721.25" x2="491" y1="633.0469" y2="633.0469"/><line style="stroke:#181818;stroke-width:1.0;" x1="491" x2="491" y1="633.0469" y2="655.0469"/><polygon fill="#181818" points="487,645.0469,491,655.0469,495,645.0469,491,649.0469" style="stroke:#181818;stroke-width:1.0;"/><line style="stroke:#181818;stroke-width:1.0;" x1="965.25" x2="1195.5" y1="633.0469" y2="633.0469"/><line style="stroke:#181818;stroke-width:1.0;" x1="1195.5" x2="1195.5" y1="633.0469" y2="655.0469"/><polygon fill="#181818" points="1191.5,645.0469,1195.5,655.0469,1199.5,645.0469,1195.5,649.0469" style="stroke:#181818;stroke-width:1.0;"/><line style="stroke:#181818;stroke-width:1.0;" x1="491" x2="491" y1="1130.7969" y2="1148.7969"/><line style="stroke:#181818;stroke-width:1.0;" x1="491" x2="831.25" y1="1148.7969" y2="1148.7969"/><polygon fill="#181818" points="821.25,1144.7969,831.25,1148.7969,821.25,1152.7969,825.25,1148.7969" style="stroke:#181818;stroke-width:1.0;"/><line style="stroke:#181818;stroke-width:1.0;" x1="1195.5" x2="1195.5" y1="689.0156" y2="1148.7969"/><line style="stroke:#181818;stroke-width:1.0;" x1="1195.5" x2="855.25" y1="1148.7969" y2="1148.7969"/><polygon fill="#181818" points="865.25,1144.7969,855.25,1148.7969,865.25,1152.7969,861.25,1148.7969" style="stroke:#181818;stroke-width:1.0;"/><line style="stroke:#181818;stroke-width:1.0;" x1="843.25" x2="843.25" y1="601.0469" y2="621.0469"/><polygon fill="#181818" points="839.25,611.0469,843.25,621.0469,847.25,611.0469,843.25,615.0469" style="stroke:#181818;stroke-width:1.0;"/><line style="stroke:#181818;stroke-width:1.0;" x1="1636" x2="1636" y1="439.1406" y2="459.1406"/><polygon fill="#181818" points="1632,449.1406,1636,459.1406,1640,449.1406,1636,453.1406" style="stroke:#181818;stroke-width:1.0;"/><line style="stroke:#181818;stroke-width:1.0;" x1="1148.125" x2="843.25" y1="383.1719" y2="383.1719"/><line style="stroke:#181818;stroke-width:1.0;" x1="843.25" x2="843.25" y1="383.1719" y2="405.1719"/><polygon fill="#181818" points="839.25,395.1719,843.25,405.1719,847.25,395.1719,843.25,399.1719" style="stroke:#181818;stroke-width:1.0;"/><line style="stroke:#181818;stroke-width:1.0;" x1="1331.125" x2="1636" y1="383.1719" y2="383.1719"/><line style="stroke:#181818;stroke-width:1.0;" x1="1636" x2="1636" y1="383.1719" y2="405.1719"/><polygon fill="#181818" points="1632,395.1719,1636,405.1719,1640,395.1719,1636,399.1719" style="stroke:#181818;stroke-width:1.0;"/><line style="stroke:#181818;stroke-width:1.0;" x1="843.25" x2="843.25" y1="1160.7969" y2="1178.7969"/><line style="stroke:#181818;stroke-width:1.0;" x1="843.25" x2="1227.625" y1="1178.7969" y2="1178.7969"/><polygon fill="#181818" points="1217.625,1174.7969,1227.625,1178.7969,1217.625,1182.7969,1221.625,1178.7969" style="stroke:#181818;stroke-width:1.0;"/><line style="stroke:#181818;stroke-width:1.0;" x1="1636" x2="1636" y1="493.1094" y2="1178.7969"/><line style="stroke:#181818;stroke-width:1.0;" x1="1636" x2="1251.625" y1="1178.7969" y2="1178.7969"/><polygon fill="#181818" points="1261.625,1174.7969,1251.625,1178.7969,1261.625,1182.7969,1257.625,1178.7969" style="stroke:#181818;stroke-width:1.0;"/><line style="stroke:#181818;stroke-width:1.0;" x1="1239.625" x2="1239.625" y1="351.1719" y2="371.1719"/><polygon fill="#181818" points="1235.625,361.1719,1239.625,371.1719,1243.625,361.1719,1239.625,365.1719" style="stroke:#181818;stroke-width:1.0;"/><line style="stroke:#181818;stroke-width:1.0;" x1="2152" x2="2152" y1="297.2031" y2="317.2031"/><polygon fill="#181818" points="2148,307.2031,2152,317.2031,2156,307.2031,2152,311.2031" style="stroke:#181818;stroke-width:1.0;"/><line style="stroke:#181818;stroke-width:1.0;" x1="1637.3125" x2="1239.625" y1="241.2344" y2="241.2344"/><line style="stroke:#181818;stroke-width:1.0;" x1="1239.625" x2="1239.625" y1="241.2344" y2="263.2344"/><polygon fill="#181818" points="1235.625,253.2344,1239.625,263.2344,1243.625,253.2344,1239.625,257.2344" style="stroke:#181818;stroke-width:1.0;"/><line style="stroke:#181818;stroke-width:1.0;" x1="1774.3125" x2="2152" y1="241.2344" y2="241.2344"/><line style="stroke:#181818;stroke-width:1.0;" x1="2152" x2="2152" y1="241.2344" y2="263.2344"/><polygon fill="#181818" points="2148,253.2344,2152,263.2344,2156,253.2344,2152,257.2344" style="stroke:#181818;stroke-width:1.0;"/><line style="stroke:#181818;stroke-width:1.0;" x1="1239.625" x2="1239.625" y1="1190.7969" y2="1208.7969"/><line style="stroke:#181818;stroke-width:1.0;" x1="1239.625" x2="1693.8125" y1="1208.7969" y2="1208.7969"/><polygon fill="#181818" points="1683.8125,1204.7969,1693.8125,1208.7969,1683.8125,1212.7969,1687.8125,1208.7969" style="stroke:#181818;stroke-width:1.0;"/><line style="stroke:#181818;stroke-width:1.0;" x1="2152" x2="2152" y1="351.1719" y2="1208.7969"/><line style="stroke:#181818;stroke-width:1.0;" x1="2152" x2="1717.8125" y1="1208.7969" y2="1208.7969"/><polygon fill="#181818" points="1727.8125,1204.7969,1717.8125,1208.7969,1727.8125,1212.7969,1723.8125,1208.7969" style="stroke:#181818;stroke-width:1.0;"/><line style="stroke:#181818;stroke-width:1.0;" x1="1705.8125" x2="1705.8125" y1="209.2344" y2="229.2344"/><polygon fill="#181818" points="1701.8125,219.2344,1705.8125,229.2344,1709.8125,219.2344,1705.8125,223.2344" style="stroke:#181818;stroke-width:1.0;"/><line style="stroke:#181818;stroke-width:1.0;" x1="1959.6563" x2="1705.8125" y1="153.2656" y2="153.2656"/><line style="stroke:#181818;stroke-width:1.0;" x1="1705.8125" x2="1705.8125" y1="153.2656" y2="175.2656"/><polygon fill="#181818" points="1701.8125,165.2656,1705.8125,175.2656,1709.8125,165.2656,1705.8125,169.2656" style="stroke:#181818;stroke-width:1.0;"/><line style="stroke:#181818;stroke-width:1.0;" x1="2238.6563" x2="2492.5" y1="153.2656" y2="153.2656"/><line style="stroke:#181818;stroke-width:1.0;" x1="2492.5" x2="2492.5" y1="153.2656" y2="175.2656"/><polygon fill="#181818" points="2488.5,165.2656,2492.5,175.2656,2496.5,165.2656,2492.5,169.2656" style="stroke:#181818;stroke-width:1.0;"/><line style="stroke:#181818;stroke-width:1.0;" x1="1705.8125" x2="1705.8125" y1="1220.7969" y2="1238.7969"/><line style="stroke:#181818;stroke-width:1.0;" x1="1705.8125" x2="2087.1563" y1="1238.7969" y2="1238.7969"/><polygon fill="#181818" points="2077.1563,1234.7969,2087.1563,1238.7969,2077.1563,1242.7969,2081.1563,1238.7969" style="stroke:#181818;stroke-width:1.0;"/><line style="stroke:#181818;stroke-width:1.0;" x1="2492.5" x2="2492.5" y1="209.2344" y2="1238.7969"/><line style="stroke:#181818;stroke-width:1.0;" x1="2492.5" x2="2111.1563" y1="1238.7969" y2="1238.7969"/><polygon fill="#181818" points="2121.1563,1234.7969,2111.1563,1238.7969,2121.1563,1242.7969,2117.1563,1238.7969" style="stroke:#181818;stroke-width:1.0;"/><line style="stroke:#181818;stroke-width:1.0;" x1="2099.1563" x2="2099.1563" y1="121.2656" y2="141.2656"/><polygon fill="#181818" points="2095.1563,131.2656,2099.1563,141.2656,2103.1563,131.2656,2099.1563,135.2656" style="stroke:#181818;stroke-width:1.0;"/><line style="stroke:#181818;stroke-width:1.0;" x1="2099.1563" x2="2099.1563" y1="1250.7969" y2="1270.7969"/><polygon fill="#181818" points="2095.1563,1260.7969,2099.1563,1270.7969,2103.1563,1260.7969,2099.1563,1264.7969" style="stroke:#181818;stroke-width:1.0;"/><line style="stroke:#181818;stroke-width:1.0;" x1="2099.1563" x2="2099.1563" y1="1304.7656" y2="1324.7656"/><polygon fill="#181818" points="2095.1563,1314.7656,2099.1563,1324.7656,2103.1563,1314.7656,2099.1563,1318.7656" style="stroke:#181818;stroke-width:1.0;"/><!--SRC=[dLNBRkCm3BpxAuXSrW7wkAV00aLog0_11jtT3n0KEX4YIuOejyZVbvBVJWAdlSaMPpZaK99NNYEyexHkhym1rjhA4sG6XDat7tygdoJaXVF9wZ-X0rkY8V17X7-gGDWAylnNbALMKdXbpKkYSaXZBA56wGaMTOeR_8jbe3EGdf6M2S3gjIS3UKHv8gYOxXU1CcNb8RUk41xI3w7LNldpyeLH8Mast5O4CM32plmRHQKMPo3fa7Uy1JIX21aLAVuJAalVtbP50Q_RvzqsPc1ah2e6qpYwtWyQrYEIEItCkHEES98xz8UyTRoYkb6PYUrEmpRRKPID92PuH-yKVY04TTacWZV2St9dYxPpfREvqjY1_We639WV6lH33sSn3VZJkXEuw657q3PHMfEhK6HmYxMHE20iEgTZEJKKkQPAIWx9AwtFYvQg6nTvj9QGWY5kE30y8v7dIlTctRGDzfgTDonj8NrGxsj7Ds_iXRaTzj9Thl2MlJ-sU69pa-AxFaUMjT2oqY4sHkmhLzlDyZVjkkxlyZ9x5p6VvvwPQeTXPgW0K7FdKsENrpAWSzRrr9c9BaxchJ7v2NOQ1PEnUXXCKREz69Rm-FWRxXl8WL2pLtboI_HgT3ICzJUFHylOyqtPxYi_Cp-fVhxoqLNPYXnBd1CulFyxORdLsdx69qaPygwIOMxegP4MX7tdDGgeMjrGssf48TY7OtmCwnUlZaz6BnVnyFELSXJcKDzfGU2r0y1NGVa5]--></g></svg>