<?xml version="1.0" encoding="us-ascii" standalone="no"?><svg xmlns="http://www.w3.org/2000/svg" xmlns:xlink="http://www.w3.org/1999/xlink" contentStyleType="text/css" height="1369px" preserveAspectRatio="none" style="width:3117px;height:1369px;background:#FFFFFF;" version="1.1" viewBox="0 0 3117 1369" width="3117px" zoomAndPan="magnify"><defs/><g><text fill="#000000" font-family="sans-serif" font-size="14" font-weight="bold" lengthAdjust="spacing" textLength="177" x="1468.5" y="32.9951">Managing Daily Tasks</text><ellipse cx="2227.75" cy="57.2969" fill="#222222" rx="10" ry="10" style="stroke:#222222;stroke-width:1.0;"/><rect fill="#F1F1F1" height="33.9688" rx="12.5" ry="12.5" style="stroke:#181818;stroke-width:0.5;" width="230" x="2112.75" y="87.2969"/><text fill="#000000" font-family="sans-serif" font-size="12" lengthAdjust="spacing" textLength="210" x="2122.75" y="108.4355">User selects "Manage Daily Tasks"</text><polygon fill="#F1F1F1" points="2129.25,141.2656,2326.25,141.2656,2338.25,153.2656,2326.25,165.2656,2129.25,165.2656,2117.25,153.2656,2129.25,141.2656" style="stroke:#181818;stroke-width:0.5;"/><text fill="#000000" font-family="sans-serif" font-size="11" lengthAdjust="spacing" textLength="197" x="2129.25" y="157.0737">User selects "View Existing Tasks"</text><rect fill="#F1F1F1" height="33.9688" rx="12.5" ry="12.5" style="stroke:#181818;stroke-width:0.5;" width="301" x="1273.5" y="175.2656"/><text fill="#000000" font-family="sans-serif" font-size="12" lengthAdjust="spacing" textLength="281" x="1283.5" y="196.4043">Application retrieves list of existing daily tasks</text><rect fill="#F1F1F1" height="33.9688" rx="12.5" ry="12.5" style="stroke:#181818;stroke-width:0.5;" width="213" x="1317.5" y="229.2344"/><text fill="#000000" font-family="sans-serif" font-size="12" lengthAdjust="spacing" textLength="193" x="1327.5" y="250.373">Application displays task details</text><polygon fill="#F1F1F1" points="343.5625,283.2031,537.5625,283.2031,549.5625,295.2031,537.5625,307.2031,343.5625,307.2031,331.5625,295.2031,343.5625,283.2031" style="stroke:#181818;stroke-width:0.5;"/><text fill="#000000" font-family="sans-serif" font-size="11" lengthAdjust="spacing" textLength="194" x="343.5625" y="299.0112">User selects "Create a New Task"</text><rect fill="#F1F1F1" height="33.9688" rx="12.5" ry="12.5" style="stroke:#181818;stroke-width:0.5;" width="165" x="358.0625" y="327.2031"/><text fill="#000000" font-family="sans-serif" font-size="12" lengthAdjust="spacing" textLength="145" x="368.0625" y="348.3418">User enters task details</text><rect fill="#F1F1F1" height="33.9688" rx="12.5" ry="12.5" style="stroke:#181818;stroke-width:0.5;" width="188" x="346.5625" y="381.1719"/><text fill="#000000" font-family="sans-serif" font-size="12" lengthAdjust="spacing" textLength="168" x="356.5625" y="402.3105">Application validates details</text><polygon fill="#F1F1F1" points="390.0625,435.1406,491.0625,435.1406,503.0625,447.1406,491.0625,459.1406,390.0625,459.1406,378.0625,447.1406,390.0625,435.1406" style="stroke:#181818;stroke-width:0.5;"/><text fill="#000000" font-family="sans-serif" font-size="11" lengthAdjust="spacing" textLength="101" x="390.0625" y="450.9487">Details are Valid?</text><rect fill="#F1F1F1" height="33.9688" rx="12.5" ry="12.5" style="stroke:#181818;stroke-width:0.5;" width="253" x="11" y="469.1406"/><text fill="#000000" font-family="sans-serif" font-size="12" lengthAdjust="spacing" textLength="233" x="21" y="490.2793">Create a new task with entered details</text><rect fill="#F1F1F1" height="33.9688" rx="12.5" ry="12.5" style="stroke:#181818;stroke-width:0.5;" width="214" x="30.5" y="538.1094"/><text fill="#000000" font-family="sans-serif" font-size="12" lengthAdjust="spacing" textLength="194" x="40.5" y="559.248">Add the new task to the task list</text><rect fill="#F1F1F1" height="33.9688" rx="12.5" ry="12.5" style="stroke:#181818;stroke-width:0.5;" width="202" x="36.5" y="607.0781"/><text fill="#000000" font-family="sans-serif" font-size="12" lengthAdjust="spacing" textLength="182" x="46.5" y="628.2168">Display confirmation message</text><rect fill="#F1F1F1" height="33.9688" rx="12.5" ry="12.5" style="stroke:#181818;stroke-width:0.5;" width="159" x="694.125" y="469.1406"/><text fill="#000000" font-family="sans-serif" font-size="12" lengthAdjust="spacing" textLength="139" x="704.125" y="490.2793">Display error message</text><rect fill="#F1F1F1" height="33.9688" rx="12.5" ry="12.5" style="stroke:#181818;stroke-width:0.5;" width="308" x="619.625" y="538.1094"/><text fill="#000000" font-family="sans-serif" font-size="12" lengthAdjust="spacing" textLength="288" x="629.625" y="559.248">User can correct details or cancel task creation</text><polygon fill="#F1F1F1" points="685.125,607.0781,862.125,607.0781,874.125,619.0781,862.125,631.0781,685.125,631.0781,673.125,619.0781,685.125,607.0781" style="stroke:#181818;stroke-width:0.5;"/><text fill="#000000" font-family="sans-serif" font-size="11" lengthAdjust="spacing" textLength="177" x="685.125" y="622.8862">User chooses to correct details</text><rect fill="#F1F1F1" height="33.9688" rx="12.5" ry="12.5" style="stroke:#181818;stroke-width:0.5;" width="177" x="471.25" y="641.0781"/><text fill="#000000" font-family="sans-serif" font-size="12" lengthAdjust="spacing" textLength="157" x="481.25" y="662.2168">User corrects task details</text><rect fill="#F1F1F1" height="33.9688" rx="12.5" ry="12.5" style="stroke:#181818;stroke-width:0.5;" width="201" x="459.25" y="710.0469"/><text fill="#000000" font-family="sans-serif" font-size="12" lengthAdjust="spacing" textLength="181" x="469.25" y="731.1855">Application revalidates details</text><polygon fill="#F1F1F1" points="509.25,779.0156,610.25,779.0156,622.25,791.0156,610.25,803.0156,509.25,803.0156,497.25,791.0156,509.25,779.0156" style="stroke:#181818;stroke-width:0.5;"/><text fill="#000000" font-family="sans-serif" font-size="11" lengthAdjust="spacing" textLength="101" x="509.25" y="794.8237">Details are Valid?</text><rect fill="#F1F1F1" height="33.9688" rx="12.5" ry="12.5" style="stroke:#181818;stroke-width:0.5;" width="265" x="274" y="813.0156"/><text fill="#000000" font-family="sans-serif" font-size="12" lengthAdjust="spacing" textLength="245" x="284" y="834.1543">Create a new task with corrected details</text><rect fill="#F1F1F1" height="33.9688" rx="12.5" ry="12.5" style="stroke:#181818;stroke-width:0.5;" width="214" x="299.5" y="881.9844"/><text fill="#000000" font-family="sans-serif" font-size="12" lengthAdjust="spacing" textLength="194" x="309.5" y="903.123">Add the new task to the task list</text><rect fill="#F1F1F1" height="33.9688" rx="12.5" ry="12.5" style="stroke:#181818;stroke-width:0.5;" width="202" x="305.5" y="950.9531"/><text fill="#000000" font-family="sans-serif" font-size="12" lengthAdjust="spacing" textLength="182" x="315.5" y="972.0918">Display confirmation message</text><rect fill="#F1F1F1" height="33.9688" rx="12.5" ry="12.5" style="stroke:#181818;stroke-width:0.5;" width="159" x="633.5" y="813.0156"/><text fill="#000000" font-family="sans-serif" font-size="12" lengthAdjust="spacing" textLength="139" x="643.5" y="834.1543">Display error message</text><rect fill="#F1F1F1" height="33.9688" rx="12.5" ry="12.5" style="stroke:#181818;stroke-width:0.5;" width="308" x="559" y="881.9844"/><text fill="#000000" font-family="sans-serif" font-size="12" lengthAdjust="spacing" textLength="288" x="569" y="903.123">User can correct details or cancel task creation</text><polygon fill="#F1F1F1" points="559.75,990.9219,571.75,1002.9219,559.75,1014.9219,547.75,1002.9219,559.75,990.9219" style="stroke:#181818;stroke-width:0.5;"/><rect fill="#F1F1F1" height="33.9688" rx="12.5" ry="12.5" style="stroke:#181818;stroke-width:0.5;" width="181" x="897" y="641.0781"/><text fill="#000000" font-family="sans-serif" font-size="12" lengthAdjust="spacing" textLength="161" x="907" y="662.2168">User cancels task creation</text><polygon fill="#F1F1F1" points="773.625,1020.9219,785.625,1032.9219,773.625,1044.9219,761.625,1032.9219,773.625,1020.9219" style="stroke:#181818;stroke-width:0.5;"/><polygon fill="#F1F1F1" points="440.5625,1050.9219,452.5625,1062.9219,440.5625,1074.9219,428.5625,1062.9219,440.5625,1050.9219" style="stroke:#181818;stroke-width:0.5;"/><polygon fill="#F1F1F1" points="1513.0625,283.2031,1715.0625,283.2031,1727.0625,295.2031,1715.0625,307.2031,1513.0625,307.2031,1501.0625,295.2031,1513.0625,283.2031" style="stroke:#181818;stroke-width:0.5;"/><text fill="#000000" font-family="sans-serif" font-size="11" lengthAdjust="spacing" textLength="202" x="1513.0625" y="299.0112">User selects "Edit an Existing Task"</text><rect fill="#F1F1F1" height="33.9688" rx="12.5" ry="12.5" style="stroke:#181818;stroke-width:0.5;" width="180" x="1524.0625" y="327.2031"/><text fill="#000000" font-family="sans-serif" font-size="12" lengthAdjust="spacing" textLength="160" x="1534.0625" y="348.3418">User selects a task to edit</text><rect fill="#F1F1F1" height="33.9688" rx="12.5" ry="12.5" style="stroke:#181818;stroke-width:0.5;" width="298" x="1465.0625" y="381.1719"/><text fill="#000000" font-family="sans-serif" font-size="12" lengthAdjust="spacing" textLength="278" x="1475.0625" y="402.3105">Application retrieves and displays task details</text><rect fill="#F1F1F1" height="33.9688" rx="12.5" ry="12.5" style="stroke:#181818;stroke-width:0.5;" width="178" x="1525.0625" y="435.1406"/><text fill="#000000" font-family="sans-serif" font-size="12" lengthAdjust="spacing" textLength="158" x="1535.0625" y="456.2793">User modifies task details</text><rect fill="#F1F1F1" height="33.9688" rx="12.5" ry="12.5" style="stroke:#181818;stroke-width:0.5;" width="245" x="1491.5625" y="504.1094"/><text fill="#000000" font-family="sans-serif" font-size="12" lengthAdjust="spacing" textLength="225" x="1501.5625" y="525.248">Application validates modified details</text><polygon fill="#F1F1F1" points="1563.5625,573.0781,1664.5625,573.0781,1676.5625,585.0781,1664.5625,597.0781,1563.5625,597.0781,1551.5625,585.0781,1563.5625,573.0781" style="stroke:#181818;stroke-width:0.5;"/><text fill="#000000" font-family="sans-serif" font-size="11" lengthAdjust="spacing" textLength="101" x="1563.5625" y="588.8862">Details are Valid?</text><rect fill="#F1F1F1" height="33.9688" rx="12.5" ry="12.5" style="stroke:#181818;stroke-width:0.5;" width="302" x="1088" y="607.0781"/><text fill="#000000" font-family="sans-serif" font-size="12" lengthAdjust="spacing" textLength="282" x="1098" y="628.2168">Update the selected task with modified details</text><rect fill="#F1F1F1" height="33.9688" rx="12.5" ry="12.5" style="stroke:#181818;stroke-width:0.5;" width="203" x="1137.5" y="676.0469"/><text fill="#000000" font-family="sans-serif" font-size="12" lengthAdjust="spacing" textLength="183" x="1147.5" y="697.1855">Update the task in the task list</text><rect fill="#F1F1F1" height="33.9688" rx="12.5" ry="12.5" style="stroke:#181818;stroke-width:0.5;" width="202" x="1138" y="745.0156"/><text fill="#000000" font-family="sans-serif" font-size="12" lengthAdjust="spacing" textLength="182" x="1148" y="766.1543">Display confirmation message</text><rect fill="#F1F1F1" height="33.9688" rx="12.5" ry="12.5" style="stroke:#181818;stroke-width:0.5;" width="159" x="1909.625" y="607.0781"/><text fill="#000000" font-family="sans-serif" font-size="12" lengthAdjust="spacing" textLength="139" x="1919.625" y="628.2168">Display error message</text><rect fill="#F1F1F1" height="33.9688" rx="12.5" ry="12.5" style="stroke:#181818;stroke-width:0.5;" width="332" x="1823.125" y="676.0469"/><text fill="#000000" font-family="sans-serif" font-size="12" lengthAdjust="spacing" textLength="312" x="1833.125" y="697.1855">User can correct details or cancel task modification</text><polygon fill="#F1F1F1" points="1900.625,745.0156,2077.625,745.0156,2089.625,757.0156,2077.625,769.0156,1900.625,769.0156,1888.625,757.0156,1900.625,745.0156" style="stroke:#181818;stroke-width:0.5;"/><text fill="#000000" font-family="sans-serif" font-size="11" lengthAdjust="spacing" textLength="177" x="1900.625" y="760.8237">User chooses to correct details</text><rect fill="#F1F1F1" height="33.9688" rx="12.5" ry="12.5" style="stroke:#181818;stroke-width:0.5;" width="177" x="1666.25" y="779.0156"/><text fill="#000000" font-family="sans-serif" font-size="12" lengthAdjust="spacing" textLength="157" x="1676.25" y="800.1543">User corrects task details</text><rect fill="#F1F1F1" height="33.9688" rx="12.5" ry="12.5" style="stroke:#181818;stroke-width:0.5;" width="201" x="1654.25" y="847.9844"/><text fill="#000000" font-family="sans-serif" font-size="12" lengthAdjust="spacing" textLength="181" x="1664.25" y="869.123">Application revalidates details</text><polygon fill="#F1F1F1" points="1704.25,916.9531,1805.25,916.9531,1817.25,928.9531,1805.25,940.9531,1704.25,940.9531,1692.25,928.9531,1704.25,916.9531" style="stroke:#181818;stroke-width:0.5;"/><text fill="#000000" font-family="sans-serif" font-size="11" lengthAdjust="spacing" textLength="101" x="1704.25" y="932.7612">Details are Valid?</text><rect fill="#F1F1F1" height="33.9688" rx="12.5" ry="12.5" style="stroke:#181818;stroke-width:0.5;" width="309" x="1430" y="950.9531"/><text fill="#000000" font-family="sans-serif" font-size="12" lengthAdjust="spacing" textLength="289" x="1440" y="972.0918">Update the selected task with corrected details</text><rect fill="#F1F1F1" height="33.9688" rx="12.5" ry="12.5" style="stroke:#181818;stroke-width:0.5;" width="203" x="1483" y="1019.9219"/><text fill="#000000" font-family="sans-serif" font-size="12" lengthAdjust="spacing" textLength="183" x="1493" y="1041.0605">Update the task in the task list</text><rect fill="#F1F1F1" height="33.9688" rx="12.5" ry="12.5" style="stroke:#181818;stroke-width:0.5;" width="202" x="1483.5" y="1088.8906"/><text fill="#000000" font-family="sans-serif" font-size="12" lengthAdjust="spacing" textLength="182" x="1493.5" y="1110.0293">Display confirmation message</text><rect fill="#F1F1F1" height="33.9688" rx="12.5" ry="12.5" style="stroke:#181818;stroke-width:0.5;" width="159" x="1845.5" y="950.9531"/><text fill="#000000" font-family="sans-serif" font-size="12" lengthAdjust="spacing" textLength="139" x="1855.5" y="972.0918">Display error message</text><rect fill="#F1F1F1" height="33.9688" rx="12.5" ry="12.5" style="stroke:#181818;stroke-width:0.5;" width="332" x="1759" y="1019.9219"/><text fill="#000000" font-family="sans-serif" font-size="12" lengthAdjust="spacing" textLength="312" x="1769" y="1041.0605">User can correct details or cancel task modification</text><polygon fill="#F1F1F1" points="1754.75,1128.8594,1766.75,1140.8594,1754.75,1152.8594,1742.75,1140.8594,1754.75,1128.8594" style="stroke:#181818;stroke-width:0.5;"/><rect fill="#F1F1F1" height="33.9688" rx="12.5" ry="12.5" style="stroke:#181818;stroke-width:0.5;" width="205" x="2121" y="779.0156"/><text fill="#000000" font-family="sans-serif" font-size="12" lengthAdjust="spacing" textLength="185" x="2131" y="800.1543">User cancels task modification</text><polygon fill="#F1F1F1" points="1989.125,1158.8594,2001.125,1170.8594,1989.125,1182.8594,1977.125,1170.8594,1989.125,1158.8594" style="stroke:#181818;stroke-width:0.5;"/><polygon fill="#F1F1F1" points="1614.0625,1188.8594,1626.0625,1200.8594,1614.0625,1212.8594,1602.0625,1200.8594,1614.0625,1188.8594" style="stroke:#181818;stroke-width:0.5;"/><polygon fill="#F1F1F1" points="2456.5,283.2031,2617.5,283.2031,2629.5,295.2031,2617.5,307.2031,2456.5,307.2031,2444.5,295.2031,2456.5,283.2031" style="stroke:#181818;stroke-width:0.5;"/><text fill="#000000" font-family="sans-serif" font-size="11" lengthAdjust="spacing" textLength="161" x="2456.5" y="299.0112">User selects "Delete Tasks"</text><rect fill="#F1F1F1" height="33.9688" rx="12.5" ry="12.5" style="stroke:#181818;stroke-width:0.5;" width="192" x="2441" y="327.2031"/><text fill="#000000" font-family="sans-serif" font-size="12" lengthAdjust="spacing" textLength="172" x="2451" y="348.3418">User selects tasks to delete</text><rect fill="#F1F1F1" height="33.9688" rx="12.5" ry="12.5" style="stroke:#181818;stroke-width:0.5;" width="342" x="2366" y="381.1719"/><text fill="#000000" font-family="sans-serif" font-size="12" lengthAdjust="spacing" textLength="322" x="2376" y="402.3105">Application removes selected tasks from the task list</text><rect fill="#F1F1F1" height="33.9688" rx="12.5" ry="12.5" style="stroke:#181818;stroke-width:0.5;" width="202" x="2436" y="435.1406"/><text fill="#000000" font-family="sans-serif" font-size="12" lengthAdjust="spacing" textLength="182" x="2446" y="456.2793">Display confirmation message</text><rect fill="#F1F1F1" height="33.9688" rx="12.5" ry="12.5" style="stroke:#181818;stroke-width:0.5;" width="189" x="2718" y="741.0469"/><text fill="#000000" font-family="sans-serif" font-size="12" lengthAdjust="spacing" textLength="169" x="2728" y="762.1855">User selects another option</text><rect fill="#F1F1F1" height="33.9688" rx="12.5" ry="12.5" style="stroke:#181818;stroke-width:0.5;" width="189" x="2917" y="175.2656"/><text fill="#000000" font-family="sans-serif" font-size="12" lengthAdjust="spacing" textLength="169" x="2927" y="196.4043">User selects another option</text><polygon fill="#F1F1F1" points="2227.75,1238.8594,2239.75,1250.8594,2227.75,1262.8594,2215.75,1250.8594,2227.75,1238.8594" style="stroke:#181818;stroke-width:0.5;"/><rect fill="#F1F1F1" height="33.9688" rx="12.5" ry="12.5" style="stroke:#181818;stroke-width:0.5;" width="270" x="2092.75" y="1282.8594"/><text fill="#000000" font-family="sans-serif" font-size="12" lengthAdjust="spacing" textLength="250" x="2102.75" y="1303.998">Application saves changes to the task list</text><ellipse cx="2227.75" cy="1347.8281" fill="none" rx="11" ry="11" style="stroke:#222222;stroke-width:1.0;"/><ellipse cx="2227.75" cy="1347.8281" fill="#222222" rx="6" ry="6" style="stroke:#222222;stroke-width:1.0;"/><line style="stroke:#181818;stroke-width:1.0;" x1="2227.75" x2="2227.75" y1="67.2969" y2="87.2969"/><polygon fill="#181818" points="2223.75,77.2969,2227.75,87.2969,2231.75,77.2969,2227.75,81.2969" style="stroke:#181818;stroke-width:1.0;"/><line style="stroke:#181818;stroke-width:1.0;" x1="1424" x2="1424" y1="209.2344" y2="229.2344"/><polygon fill="#181818" points="1420,219.2344,1424,229.2344,1428,219.2344,1424,223.2344" style="stroke:#181818;stroke-width:1.0;"/><line style="stroke:#181818;stroke-width:1.0;" x1="440.5625" x2="440.5625" y1="361.1719" y2="381.1719"/><polygon fill="#181818" points="436.5625,371.1719,440.5625,381.1719,444.5625,371.1719,440.5625,375.1719" style="stroke:#181818;stroke-width:1.0;"/><line style="stroke:#181818;stroke-width:1.0;" x1="137.5" x2="137.5" y1="503.1094" y2="538.1094"/><polygon fill="#181818" points="133.5,528.1094,137.5,538.1094,141.5,528.1094,137.5,532.1094" style="stroke:#181818;stroke-width:1.0;"/><line style="stroke:#181818;stroke-width:1.0;" x1="137.5" x2="137.5" y1="572.0781" y2="607.0781"/><polygon fill="#181818" points="133.5,597.0781,137.5,607.0781,141.5,597.0781,137.5,601.0781" style="stroke:#181818;stroke-width:1.0;"/><line style="stroke:#181818;stroke-width:1.0;" x1="773.625" x2="773.625" y1="503.1094" y2="538.1094"/><polygon fill="#181818" points="769.625,528.1094,773.625,538.1094,777.625,528.1094,773.625,532.1094" style="stroke:#181818;stroke-width:1.0;"/><line style="stroke:#181818;stroke-width:1.0;" x1="559.75" x2="559.75" y1="675.0469" y2="710.0469"/><polygon fill="#181818" points="555.75,700.0469,559.75,710.0469,563.75,700.0469,559.75,704.0469" style="stroke:#181818;stroke-width:1.0;"/><line style="stroke:#181818;stroke-width:1.0;" x1="406.5" x2="406.5" y1="846.9844" y2="881.9844"/><polygon fill="#181818" points="402.5,871.9844,406.5,881.9844,410.5,871.9844,406.5,875.9844" style="stroke:#181818;stroke-width:1.0;"/><line style="stroke:#181818;stroke-width:1.0;" x1="406.5" x2="406.5" y1="915.9531" y2="950.9531"/><polygon fill="#181818" points="402.5,940.9531,406.5,950.9531,410.5,940.9531,406.5,944.9531" style="stroke:#181818;stroke-width:1.0;"/><line style="stroke:#181818;stroke-width:1.0;" x1="713" x2="713" y1="846.9844" y2="881.9844"/><polygon fill="#181818" points="709,871.9844,713,881.9844,717,871.9844,713,875.9844" style="stroke:#181818;stroke-width:1.0;"/><line style="stroke:#181818;stroke-width:1.0;" x1="497.25" x2="406.5" y1="791.0156" y2="791.0156"/><line style="stroke:#181818;stroke-width:1.0;" x1="406.5" x2="406.5" y1="791.0156" y2="813.0156"/><polygon fill="#181818" points="402.5,803.0156,406.5,813.0156,410.5,803.0156,406.5,807.0156" style="stroke:#181818;stroke-width:1.0;"/><line style="stroke:#181818;stroke-width:1.0;" x1="622.25" x2="713" y1="791.0156" y2="791.0156"/><line style="stroke:#181818;stroke-width:1.0;" x1="713" x2="713" y1="791.0156" y2="813.0156"/><polygon fill="#181818" points="709,803.0156,713,813.0156,717,803.0156,713,807.0156" style="stroke:#181818;stroke-width:1.0;"/><line style="stroke:#181818;stroke-width:1.0;" x1="406.5" x2="406.5" y1="984.9219" y2="1002.9219"/><line style="stroke:#181818;stroke-width:1.0;" x1="406.5" x2="547.75" y1="1002.9219" y2="1002.9219"/><polygon fill="#181818" points="537.75,998.9219,547.75,1002.9219,537.75,1006.9219,541.75,1002.9219" style="stroke:#181818;stroke-width:1.0;"/><line style="stroke:#181818;stroke-width:1.0;" x1="713" x2="713" y1="915.9531" y2="1002.9219"/><line style="stroke:#181818;stroke-width:1.0;" x1="713" x2="571.75" y1="1002.9219" y2="1002.9219"/><polygon fill="#181818" points="581.75,998.9219,571.75,1002.9219,581.75,1006.9219,577.75,1002.9219" style="stroke:#181818;stroke-width:1.0;"/><line style="stroke:#181818;stroke-width:1.0;" x1="559.75" x2="559.75" y1="744.0156" y2="779.0156"/><polygon fill="#181818" points="555.75,769.0156,559.75,779.0156,563.75,769.0156,559.75,773.0156" style="stroke:#181818;stroke-width:1.0;"/><line style="stroke:#181818;stroke-width:1.0;" x1="673.125" x2="559.75" y1="619.0781" y2="619.0781"/><line style="stroke:#181818;stroke-width:1.0;" x1="559.75" x2="559.75" y1="619.0781" y2="641.0781"/><polygon fill="#181818" points="555.75,631.0781,559.75,641.0781,563.75,631.0781,559.75,635.0781" style="stroke:#181818;stroke-width:1.0;"/><line style="stroke:#181818;stroke-width:1.0;" x1="874.125" x2="987.5" y1="619.0781" y2="619.0781"/><line style="stroke:#181818;stroke-width:1.0;" x1="987.5" x2="987.5" y1="619.0781" y2="641.0781"/><polygon fill="#181818" points="983.5,631.0781,987.5,641.0781,991.5,631.0781,987.5,635.0781" style="stroke:#181818;stroke-width:1.0;"/><line style="stroke:#181818;stroke-width:1.0;" x1="559.75" x2="559.75" y1="1014.9219" y2="1032.9219"/><line style="stroke:#181818;stroke-width:1.0;" x1="559.75" x2="761.625" y1="1032.9219" y2="1032.9219"/><polygon fill="#181818" points="751.625,1028.9219,761.625,1032.9219,751.625,1036.9219,755.625,1032.9219" style="stroke:#181818;stroke-width:1.0;"/><line style="stroke:#181818;stroke-width:1.0;" x1="987.5" x2="987.5" y1="675.0469" y2="1032.9219"/><line style="stroke:#181818;stroke-width:1.0;" x1="987.5" x2="785.625" y1="1032.9219" y2="1032.9219"/><polygon fill="#181818" points="795.625,1028.9219,785.625,1032.9219,795.625,1036.9219,791.625,1032.9219" style="stroke:#181818;stroke-width:1.0;"/><line style="stroke:#181818;stroke-width:1.0;" x1="773.625" x2="773.625" y1="572.0781" y2="607.0781"/><polygon fill="#181818" points="769.625,597.0781,773.625,607.0781,777.625,597.0781,773.625,601.0781" style="stroke:#181818;stroke-width:1.0;"/><line style="stroke:#181818;stroke-width:1.0;" x1="378.0625" x2="137.5" y1="447.1406" y2="447.1406"/><line style="stroke:#181818;stroke-width:1.0;" x1="137.5" x2="137.5" y1="447.1406" y2="469.1406"/><polygon fill="#181818" points="133.5,459.1406,137.5,469.1406,141.5,459.1406,137.5,463.1406" style="stroke:#181818;stroke-width:1.0;"/><line style="stroke:#181818;stroke-width:1.0;" x1="503.0625" x2="773.625" y1="447.1406" y2="447.1406"/><line style="stroke:#181818;stroke-width:1.0;" x1="773.625" x2="773.625" y1="447.1406" y2="469.1406"/><polygon fill="#181818" points="769.625,459.1406,773.625,469.1406,777.625,459.1406,773.625,463.1406" style="stroke:#181818;stroke-width:1.0;"/><line style="stroke:#181818;stroke-width:1.0;" x1="137.5" x2="137.5" y1="641.0469" y2="1062.9219"/><line style="stroke:#181818;stroke-width:1.0;" x1="137.5" x2="428.5625" y1="1062.9219" y2="1062.9219"/><polygon fill="#181818" points="418.5625,1058.9219,428.5625,1062.9219,418.5625,1066.9219,422.5625,1062.9219" style="stroke:#181818;stroke-width:1.0;"/><line style="stroke:#181818;stroke-width:1.0;" x1="773.625" x2="773.625" y1="1044.9219" y2="1062.9219"/><line style="stroke:#181818;stroke-width:1.0;" x1="773.625" x2="452.5625" y1="1062.9219" y2="1062.9219"/><polygon fill="#181818" points="462.5625,1058.9219,452.5625,1062.9219,462.5625,1066.9219,458.5625,1062.9219" style="stroke:#181818;stroke-width:1.0;"/><line style="stroke:#181818;stroke-width:1.0;" x1="440.5625" x2="440.5625" y1="415.1406" y2="435.1406"/><polygon fill="#181818" points="436.5625,425.1406,440.5625,435.1406,444.5625,425.1406,440.5625,429.1406" style="stroke:#181818;stroke-width:1.0;"/><line style="stroke:#181818;stroke-width:1.0;" x1="1614.0625" x2="1614.0625" y1="361.1719" y2="381.1719"/><polygon fill="#181818" points="1610.0625,371.1719,1614.0625,381.1719,1618.0625,371.1719,1614.0625,375.1719" style="stroke:#181818;stroke-width:1.0;"/><line style="stroke:#181818;stroke-width:1.0;" x1="1614.0625" x2="1614.0625" y1="415.1406" y2="435.1406"/><polygon fill="#181818" points="1610.0625,425.1406,1614.0625,435.1406,1618.0625,425.1406,1614.0625,429.1406" style="stroke:#181818;stroke-width:1.0;"/><line style="stroke:#181818;stroke-width:1.0;" x1="1614.0625" x2="1614.0625" y1="469.1094" y2="504.1094"/><polygon fill="#181818" points="1610.0625,494.1094,1614.0625,504.1094,1618.0625,494.1094,1614.0625,498.1094" style="stroke:#181818;stroke-width:1.0;"/><line style="stroke:#181818;stroke-width:1.0;" x1="1239" x2="1239" y1="641.0469" y2="676.0469"/><polygon fill="#181818" points="1235,666.0469,1239,676.0469,1243,666.0469,1239,670.0469" style="stroke:#181818;stroke-width:1.0;"/><line style="stroke:#181818;stroke-width:1.0;" x1="1239" x2="1239" y1="710.0156" y2="745.0156"/><polygon fill="#181818" points="1235,735.0156,1239,745.0156,1243,735.0156,1239,739.0156" style="stroke:#181818;stroke-width:1.0;"/><line style="stroke:#181818;stroke-width:1.0;" x1="1989.125" x2="1989.125" y1="641.0469" y2="676.0469"/><polygon fill="#181818" points="1985.125,666.0469,1989.125,676.0469,1993.125,666.0469,1989.125,670.0469" style="stroke:#181818;stroke-width:1.0;"/><line style="stroke:#181818;stroke-width:1.0;" x1="1754.75" x2="1754.75" y1="812.9844" y2="847.9844"/><polygon fill="#181818" points="1750.75,837.9844,1754.75,847.9844,1758.75,837.9844,1754.75,841.9844" style="stroke:#181818;stroke-width:1.0;"/><line style="stroke:#181818;stroke-width:1.0;" x1="1584.5" x2="1584.5" y1="984.9219" y2="1019.9219"/><polygon fill="#181818" points="1580.5,1009.9219,1584.5,1019.9219,1588.5,1009.9219,1584.5,1013.9219" style="stroke:#181818;stroke-width:1.0;"/><line style="stroke:#181818;stroke-width:1.0;" x1="1584.5" x2="1584.5" y1="1053.8906" y2="1088.8906"/><polygon fill="#181818" points="1580.5,1078.8906,1584.5,1088.8906,1588.5,1078.8906,1584.5,1082.8906" style="stroke:#181818;stroke-width:1.0;"/><line style="stroke:#181818;stroke-width:1.0;" x1="1925" x2="1925" y1="984.9219" y2="1019.9219"/><polygon fill="#181818" points="1921,1009.9219,1925,1019.9219,1929,1009.9219,1925,1013.9219" style="stroke:#181818;stroke-width:1.0;"/><line style="stroke:#181818;stroke-width:1.0;" x1="1692.25" x2="1584.5" y1="928.9531" y2="928.9531"/><line style="stroke:#181818;stroke-width:1.0;" x1="1584.5" x2="1584.5" y1="928.9531" y2="950.9531"/><polygon fill="#181818" points="1580.5,940.9531,1584.5,950.9531,1588.5,940.9531,1584.5,944.9531" style="stroke:#181818;stroke-width:1.0;"/><line style="stroke:#181818;stroke-width:1.0;" x1="1817.25" x2="1925" y1="928.9531" y2="928.9531"/><line style="stroke:#181818;stroke-width:1.0;" x1="1925" x2="1925" y1="928.9531" y2="950.9531"/><polygon fill="#181818" points="1921,940.9531,1925,950.9531,1929,940.9531,1925,944.9531" style="stroke:#181818;stroke-width:1.0;"/><line style="stroke:#181818;stroke-width:1.0;" x1="1584.5" x2="1584.5" y1="1122.8594" y2="1140.8594"/><line style="stroke:#181818;stroke-width:1.0;" x1="1584.5" x2="1742.75" y1="1140.8594" y2="1140.8594"/><polygon fill="#181818" points="1732.75,1136.8594,1742.75,1140.8594,1732.75,1144.8594,1736.75,1140.8594" style="stroke:#181818;stroke-width:1.0;"/><line style="stroke:#181818;stroke-width:1.0;" x1="1925" x2="1925" y1="1053.8906" y2="1140.8594"/><line style="stroke:#181818;stroke-width:1.0;" x1="1925" x2="1766.75" y1="1140.8594" y2="1140.8594"/><polygon fill="#181818" points="1776.75,1136.8594,1766.75,1140.8594,1776.75,1144.8594,1772.75,1140.8594" style="stroke:#181818;stroke-width:1.0;"/><line style="stroke:#181818;stroke-width:1.0;" x1="1754.75" x2="1754.75" y1="881.9531" y2="916.9531"/><polygon fill="#181818" points="1750.75,906.9531,1754.75,916.9531,1758.75,906.9531,1754.75,910.9531" style="stroke:#181818;stroke-width:1.0;"/><line style="stroke:#181818;stroke-width:1.0;" x1="1888.625" x2="1754.75" y1="757.0156" y2="757.0156"/><line style="stroke:#181818;stroke-width:1.0;" x1="1754.75" x2="1754.75" y1="757.0156" y2="779.0156"/><polygon fill="#181818" points="1750.75,769.0156,1754.75,779.0156,1758.75,769.0156,1754.75,773.0156" style="stroke:#181818;stroke-width:1.0;"/><line style="stroke:#181818;stroke-width:1.0;" x1="2089.625" x2="2223.5" y1="757.0156" y2="757.0156"/><line style="stroke:#181818;stroke-width:1.0;" x1="2223.5" x2="2223.5" y1="757.0156" y2="779.0156"/><polygon fill="#181818" points="2219.5,769.0156,2223.5,779.0156,2227.5,769.0156,2223.5,773.0156" style="stroke:#181818;stroke-width:1.0;"/><line style="stroke:#181818;stroke-width:1.0;" x1="1754.75" x2="1754.75" y1="1152.8594" y2="1170.8594"/><line style="stroke:#181818;stroke-width:1.0;" x1="1754.75" x2="1977.125" y1="1170.8594" y2="1170.8594"/><polygon fill="#181818" points="1967.125,1166.8594,1977.125,1170.8594,1967.125,1174.8594,1971.125,1170.8594" style="stroke:#181818;stroke-width:1.0;"/><line style="stroke:#181818;stroke-width:1.0;" x1="2223.5" x2="2223.5" y1="812.9844" y2="1170.8594"/><line style="stroke:#181818;stroke-width:1.0;" x1="2223.5" x2="2001.125" y1="1170.8594" y2="1170.8594"/><polygon fill="#181818" points="2011.125,1166.8594,2001.125,1170.8594,2011.125,1174.8594,2007.125,1170.8594" style="stroke:#181818;stroke-width:1.0;"/><line style="stroke:#181818;stroke-width:1.0;" x1="1989.125" x2="1989.125" y1="710.0156" y2="745.0156"/><polygon fill="#181818" points="1985.125,735.0156,1989.125,745.0156,1993.125,735.0156,1989.125,739.0156" style="stroke:#181818;stroke-width:1.0;"/><line style="stroke:#181818;stroke-width:1.0;" x1="1551.5625" x2="1239" y1="585.0781" y2="585.0781"/><line style="stroke:#181818;stroke-width:1.0;" x1="1239" x2="1239" y1="585.0781" y2="607.0781"/><polygon fill="#181818" points="1235,597.0781,1239,607.0781,1243,597.0781,1239,601.0781" style="stroke:#181818;stroke-width:1.0;"/><line style="stroke:#181818;stroke-width:1.0;" x1="1676.5625" x2="1989.125" y1="585.0781" y2="585.0781"/><line style="stroke:#181818;stroke-width:1.0;" x1="1989.125" x2="1989.125" y1="585.0781" y2="607.0781"/><polygon fill="#181818" points="1985.125,597.0781,1989.125,607.0781,1993.125,597.0781,1989.125,601.0781" style="stroke:#181818;stroke-width:1.0;"/><line style="stroke:#181818;stroke-width:1.0;" x1="1239" x2="1239" y1="778.9844" y2="1200.8594"/><line style="stroke:#181818;stroke-width:1.0;" x1="1239" x2="1602.0625" y1="1200.8594" y2="1200.8594"/><polygon fill="#181818" points="1592.0625,1196.8594,1602.0625,1200.8594,1592.0625,1204.8594,1596.0625,1200.8594" style="stroke:#181818;stroke-width:1.0;"/><line style="stroke:#181818;stroke-width:1.0;" x1="1989.125" x2="1989.125" y1="1182.8594" y2="1200.8594"/><line style="stroke:#181818;stroke-width:1.0;" x1="1989.125" x2="1626.0625" y1="1200.8594" y2="1200.8594"/><polygon fill="#181818" points="1636.0625,1196.8594,1626.0625,1200.8594,1636.0625,1204.8594,1632.0625,1200.8594" style="stroke:#181818;stroke-width:1.0;"/><line style="stroke:#181818;stroke-width:1.0;" x1="1614.0625" x2="1614.0625" y1="538.0781" y2="573.0781"/><polygon fill="#181818" points="1610.0625,563.0781,1614.0625,573.0781,1618.0625,563.0781,1614.0625,567.0781" style="stroke:#181818;stroke-width:1.0;"/><line style="stroke:#181818;stroke-width:1.0;" x1="2537" x2="2537" y1="361.1719" y2="381.1719"/><polygon fill="#181818" points="2533,371.1719,2537,381.1719,2541,371.1719,2537,375.1719" style="stroke:#181818;stroke-width:1.0;"/><line style="stroke:#181818;stroke-width:1.0;" x1="2537" x2="2537" y1="415.1406" y2="435.1406"/><polygon fill="#181818" points="2533,425.1406,2537,435.1406,2541,425.1406,2537,429.1406" style="stroke:#181818;stroke-width:1.0;"/><line style="stroke:#181818;stroke-width:1.0;" x1="440.5625" x2="440.5625" y1="307.2031" y2="327.2031"/><polygon fill="#181818" points="436.5625,317.2031,440.5625,327.2031,444.5625,317.2031,440.5625,321.2031" style="stroke:#181818;stroke-width:1.0;"/><line style="stroke:#181818;stroke-width:1.0;" x1="440.5625" x2="440.5625" y1="1074.9219" y2="1232.8594"/><polygon fill="#181818" points="436.5625,1222.8594,440.5625,1232.8594,444.5625,1222.8594,440.5625,1226.8594" style="stroke:#181818;stroke-width:1.0;"/><line style="stroke:#181818;stroke-width:1.0;" x1="1614.0625" x2="1614.0625" y1="307.2031" y2="327.2031"/><polygon fill="#181818" points="1610.0625,317.2031,1614.0625,327.2031,1618.0625,317.2031,1614.0625,321.2031" style="stroke:#181818;stroke-width:1.0;"/><line style="stroke:#181818;stroke-width:1.0;" x1="1614.0625" x2="1614.0625" y1="1212.8594" y2="1232.8594"/><polygon fill="#181818" points="1610.0625,1222.8594,1614.0625,1232.8594,1618.0625,1222.8594,1614.0625,1226.8594" style="stroke:#181818;stroke-width:1.0;"/><line style="stroke:#181818;stroke-width:1.0;" x1="2537" x2="2537" y1="307.2031" y2="327.2031"/><polygon fill="#181818" points="2533,317.2031,2537,327.2031,2541,317.2031,2537,321.2031" style="stroke:#181818;stroke-width:1.0;"/><line style="stroke:#181818;stroke-width:1.0;" x1="2537" x2="2537" y1="469.1094" y2="1232.8594"/><polygon fill="#181818" points="2533,1222.8594,2537,1232.8594,2541,1222.8594,2537,1226.8594" style="stroke:#181818;stroke-width:1.0;"/><line style="stroke:#181818;stroke-width:1.0;" x1="549.5625" x2="1501.0625" y1="295.2031" y2="295.2031"/><polygon fill="#181818" points="1491.0625,291.2031,1501.0625,295.2031,1491.0625,299.2031,1495.0625,295.2031" style="stroke:#181818;stroke-width:1.0;"/><line style="stroke:#181818;stroke-width:1.0;" x1="1727.0625" x2="2444.5" y1="295.2031" y2="295.2031"/><polygon fill="#181818" points="2434.5,291.2031,2444.5,295.2031,2434.5,299.2031,2438.5,295.2031" style="stroke:#181818;stroke-width:1.0;"/><line style="stroke:#181818;stroke-width:1.0;" x1="1424" x2="1424" y1="263.2031" y2="268.2031"/><line style="stroke:#181818;stroke-width:1.0;" x1="1424" x2="440.5625" y1="268.2031" y2="268.2031"/><line style="stroke:#181818;stroke-width:1.0;" x1="440.5625" x2="440.5625" y1="268.2031" y2="283.2031"/><polygon fill="#181818" points="436.5625,273.2031,440.5625,283.2031,444.5625,273.2031,440.5625,277.2031" style="stroke:#181818;stroke-width:1.0;"/><line style="stroke:#181818;stroke-width:1.0;" x1="2629.5" x2="2812.5" y1="295.2031" y2="295.2031"/><line style="stroke:#181818;stroke-width:1.0;" x1="2812.5" x2="2812.5" y1="295.2031" y2="741.0469"/><polygon fill="#181818" points="2808.5,731.0469,2812.5,741.0469,2816.5,731.0469,2812.5,735.0469" style="stroke:#181818;stroke-width:1.0;"/><line style="stroke:#181818;stroke-width:1.0;" x1="2812.5" x2="2812.5" y1="775.0156" y2="1232.8594"/><polygon fill="#181818" points="2808.5,1222.8594,2812.5,1232.8594,2816.5,1222.8594,2812.5,1226.8594" style="stroke:#181818;stroke-width:1.0;"/><line style="stroke:#181818;stroke-width:1.0;" x1="440.5625" x2="2812.5" y1="1232.8594" y2="1232.8594"/><line style="stroke:#181818;stroke-width:1.0;" x1="2117.25" x2="1424" y1="153.2656" y2="153.2656"/><line style="stroke:#181818;stroke-width:1.0;" x1="1424" x2="1424" y1="153.2656" y2="175.2656"/><polygon fill="#181818" points="1420,165.2656,1424,175.2656,1428,165.2656,1424,169.2656" style="stroke:#181818;stroke-width:1.0;"/><line style="stroke:#181818;stroke-width:1.0;" x1="2338.25" x2="3011.5" y1="153.2656" y2="153.2656"/><line style="stroke:#181818;stroke-width:1.0;" x1="3011.5" x2="3011.5" y1="153.2656" y2="175.2656"/><polygon fill="#181818" points="3007.5,165.2656,3011.5,175.2656,3015.5,165.2656,3011.5,169.2656" style="stroke:#181818;stroke-width:1.0;"/><line style="stroke:#181818;stroke-width:1.0;" x1="1424" x2="1424" y1="1232.8594" y2="1250.8594"/><line style="stroke:#181818;stroke-width:1.0;" x1="1424" x2="2215.75" y1="1250.8594" y2="1250.8594"/><polygon fill="#181818" points="2205.75,1246.8594,2215.75,1250.8594,2205.75,1254.8594,2209.75,1250.8594" style="stroke:#181818;stroke-width:1.0;"/><line style="stroke:#181818;stroke-width:1.0;" x1="3011.5" x2="3011.5" y1="209.2344" y2="1250.8594"/><line style="stroke:#181818;stroke-width:1.0;" x1="3011.5" x2="2239.75" y1="1250.8594" y2="1250.8594"/><polygon fill="#181818" points="2249.75,1246.8594,2239.75,1250.8594,2249.75,1254.8594,2245.75,1250.8594" style="stroke:#181818;stroke-width:1.0;"/><line style="stroke:#181818;stroke-width:1.0;" x1="2227.75" x2="2227.75" y1="121.2656" y2="141.2656"/><polygon fill="#181818" points="2223.75,131.2656,2227.75,141.2656,2231.75,131.2656,2227.75,135.2656" style="stroke:#181818;stroke-width:1.0;"/><line style="stroke:#181818;stroke-width:1.0;" x1="2227.75" x2="2227.75" y1="1262.8594" y2="1282.8594"/><polygon fill="#181818" points="2223.75,1272.8594,2227.75,1282.8594,2231.75,1272.8594,2227.75,1276.8594" style="stroke:#181818;stroke-width:1.0;"/><line style="stroke:#181818;stroke-width:1.0;" x1="2227.75" x2="2227.75" y1="1316.8281" y2="1336.8281"/><polygon fill="#181818" points="2223.75,1326.8281,2227.75,1336.8281,2231.75,1326.8281,2227.75,1330.8281" style="stroke:#181818;stroke-width:1.0;"/><!--SRC=[tLN1RkCW4BtxAqOzxVv2UwYgJOxTqxPt1EC4BGQBGMtpznqWjWEcQTAzL2j5YUsyUVEOnyD11uFmAApOQRk3ZT3c07y4_QMkeo1yw6wV23qG6fI1u2P1yHHuSzTrkeSV9UvPuojitpI5o9k1Fo7iqNO0jm_ZQBGKGJiB7eFN-884Xj7WUi2fJAKk8HRVrMLAqsZ4WTBVe30mDg7uivRpowC8209-iwoePX73l0cBDg1VqrLjNuJHYgcenAIls7QJduBm2CyHUt_IYBbc8PQ5f5wlEknpSrGbQMojL2nVqC6b-tGTvpKZDtaU89tjjH-osW69sAuCGaDOez5xvqlOD0yfB9DvpmESP85BZoMQB436nN2VgV3uCuzVxfqZ7XMBhfYAeSmTCwRbmSe7ZnyuSQBZ8aVEkN8KjFRbEcykzAVow7EV_iahxcMLxhj6tvcJYwbTlTHELv6X4RojqW5ONN4KhCCtuSKyIUJ2HlwMqq9OzV4XCF4EZjLfl2BMnmhrnNm_ZP4cxOEy9cPQDbIRl2nBQ6s_KSopQlb_HFsyGUSJVwbBtoBmBTUk2tsBuUBWR_Y2PrMz-UkyftTxt3GgmPk17roCUs4MGU_Tq1h-fsEV5rqTFDOncmStJglDwpl2puCpj2jqauYgvLxONOv59PQ26zy1]--></g></svg>