<?xml version="1.0" encoding="us-ascii" standalone="no"?><svg xmlns="http://www.w3.org/2000/svg" xmlns:xlink="http://www.w3.org/1999/xlink" contentStyleType="text/css" height="2684px" preserveAspectRatio="none" style="width:1258px;height:2684px;background:#FFFFFF;" version="1.1" viewBox="0 0 1258 2684" width="1258px" zoomAndPan="magnify"><defs/><g><text fill="#000000" font-family="sans-serif" font-size="14" font-weight="bold" lengthAdjust="spacing" textLength="137" x="559" y="32.9951">Pengingat Tugas</text><ellipse cx="760.125" cy="57.2969" fill="#222222" rx="10" ry="10" style="stroke:#222222;stroke-width:1.0;"/><rect fill="#F1F1F1" height="33.9688" rx="12.5" ry="12.5" style="stroke:#181818;stroke-width:0.5;" width="292" x="614.125" y="87.2969"/><text fill="#000000" font-family="sans-serif" font-size="12" lengthAdjust="spacing" textLength="272" x="624.125" y="108.4355">Pengguna membuka aplikasi Pengingat Tugas</text><polygon fill="#F1F1F1" points="674.125,141.2656,846.125,141.2656,858.125,153.2656,846.125,165.2656,674.125,165.2656,662.125,153.2656,674.125,141.2656" style="stroke:#181818;stroke-width:0.5;"/><text fill="#000000" font-family="sans-serif" font-size="11" lengthAdjust="spacing" textLength="172" x="674.125" y="157.0737">Tugas dengan tenggat waktu?</text><text fill="#000000" font-family="sans-serif" font-size="11" lengthAdjust="spacing" textLength="14" x="648.125" y="150.6714">ya</text><text fill="#000000" font-family="sans-serif" font-size="11" lengthAdjust="spacing" textLength="27" x="858.125" y="150.6714">tidak</text><rect fill="#F1F1F1" height="33.9688" rx="12.5" ry="12.5" style="stroke:#181818;stroke-width:0.5;" width="596" x="145.25" y="175.2656"/><text fill="#000000" font-family="sans-serif" font-size="12" lengthAdjust="spacing" textLength="576" x="155.25" y="196.4043">Aplikasi secara otomatis memberikan pengingat untuk tugas-tugas yang memiliki tenggat waktu</text><rect fill="#F1F1F1" height="33.9688" rx="12.5" ry="12.5" style="stroke:#181818;stroke-width:0.5;" width="509" x="188.75" y="229.2344"/><text fill="#000000" font-family="sans-serif" font-size="12" lengthAdjust="spacing" textLength="489" x="198.75" y="250.373">Pengguna menerima pemberitahuan tentang tugas-tugas yang harus diselesaikan</text><rect fill="#F1F1F1" height="33.9688" rx="12.5" ry="12.5" style="stroke:#181818;stroke-width:0.5;" width="227" x="329.75" y="338.9136"/><text fill="#000000" font-family="sans-serif" font-size="12" lengthAdjust="spacing" textLength="207" x="339.75" y="360.0522">Untuk setiap tugas dengan atribut:</text><rect fill="#F1F1F1" height="33.9688" rx="12.5" ry="12.5" style="stroke:#181818;stroke-width:0.5;" width="72" x="407.25" y="392.8823"/><text fill="#000000" font-family="sans-serif" font-size="12" lengthAdjust="spacing" textLength="52" x="417.25" y="414.021">ID Tugas</text><rect fill="#F1F1F1" height="33.9688" rx="12.5" ry="12.5" style="stroke:#181818;stroke-width:0.5;" width="93" x="396.75" y="446.8511"/><text fill="#000000" font-family="sans-serif" font-size="12" lengthAdjust="spacing" textLength="73" x="406.75" y="467.9897">Nama Tugas</text><rect fill="#F1F1F1" height="33.9688" rx="12.5" ry="12.5" style="stroke:#181818;stroke-width:0.5;" width="77" x="404.75" y="500.8198"/><text fill="#000000" font-family="sans-serif" font-size="12" lengthAdjust="spacing" textLength="57" x="414.75" y="521.9585">Deskripsi</text><rect fill="#F1F1F1" height="33.9688" rx="12.5" ry="12.5" style="stroke:#181818;stroke-width:0.5;" width="238" x="324.25" y="554.7886"/><text fill="#000000" font-family="sans-serif" font-size="12" lengthAdjust="spacing" textLength="218" x="334.25" y="575.9272">Tenggat Waktu (Tanggal dan Waktu)</text><rect fill="#F1F1F1" height="33.9688" rx="12.5" ry="12.5" style="stroke:#181818;stroke-width:0.5;" width="224" x="331.25" y="608.7573"/><text fill="#000000" font-family="sans-serif" font-size="12" lengthAdjust="spacing" textLength="204" x="341.25" y="629.896">Prioritas (Rendah, Sedang, Tinggi)</text><rect fill="#F1F1F1" height="33.9688" rx="12.5" ry="12.5" style="stroke:#181818;stroke-width:0.5;" width="208" x="339.25" y="662.7261"/><text fill="#000000" font-family="sans-serif" font-size="12" lengthAdjust="spacing" textLength="188" x="349.25" y="683.8647">Status (Belum Selesai, Selesai)</text><rect fill="#F1F1F1" height="33.9688" rx="12.5" ry="12.5" style="stroke:#181818;stroke-width:0.5;" width="277" x="304.75" y="765.0972"/><text fill="#000000" font-family="sans-serif" font-size="12" lengthAdjust="spacing" textLength="257" x="314.75" y="786.2358">Pengguna memilih tugas untuk dilihat detail</text><rect fill="#F1F1F1" height="33.9688" rx="12.5" ry="12.5" style="stroke:#181818;stroke-width:0.5;" width="282" x="302.25" y="834.0659"/><text fill="#000000" font-family="sans-serif" font-size="12" lengthAdjust="spacing" textLength="262" x="312.25" y="855.2046">Aplikasi menampilkan informasi detail tugas</text><polygon fill="#F1F1F1" points="313.75,716.6948,572.75,716.6948,584.75,728.6948,572.75,740.6948,313.75,740.6948,301.75,728.6948,313.75,716.6948" style="stroke:#181818;stroke-width:0.5;"/><text fill="#000000" font-family="sans-serif" font-size="11" lengthAdjust="spacing" textLength="14" x="447.25" y="750.9053">ya</text><text fill="#000000" font-family="sans-serif" font-size="11" lengthAdjust="spacing" textLength="259" x="313.75" y="732.5029">Pengguna memilih untuk melihat detail tugas</text><polygon fill="#F1F1F1" points="443.25,888.0347,455.25,900.0347,443.25,912.0347,431.25,900.0347,443.25,888.0347" style="stroke:#181818;stroke-width:0.5;"/><polygon fill="#F1F1F1" points="277.75,932.0347,608.75,932.0347,620.75,944.0347,608.75,956.0347,277.75,956.0347,265.75,944.0347,277.75,932.0347" style="stroke:#181818;stroke-width:0.5;"/><text fill="#000000" font-family="sans-serif" font-size="11" lengthAdjust="spacing" textLength="331" x="277.75" y="947.8428">Pengguna memilih untuk menandai tugas sebagai selesai</text><text fill="#000000" font-family="sans-serif" font-size="11" lengthAdjust="spacing" textLength="14" x="251.75" y="941.4404">ya</text><text fill="#000000" font-family="sans-serif" font-size="11" lengthAdjust="spacing" textLength="27" x="620.75" y="941.4404">tidak</text><rect fill="#F1F1F1" height="33.9688" rx="12.5" ry="12.5" style="stroke:#181818;stroke-width:0.5;" width="351" x="56" y="966.0347"/><text fill="#000000" font-family="sans-serif" font-size="12" lengthAdjust="spacing" textLength="331" x="66" y="987.1733">Pengguna memilih tugas untuk ditandai sebagai selesai</text><rect fill="#F1F1F1" height="33.9688" rx="12.5" ry="12.5" style="stroke:#181818;stroke-width:0.5;" width="267" x="98" y="1020.0034"/><text fill="#000000" font-family="sans-serif" font-size="12" lengthAdjust="spacing" textLength="247" x="108" y="1041.1421">Tandai tugas yang dipilih sebagai selesai</text><rect fill="#F1F1F1" height="33.9688" rx="12.5" ry="12.5" style="stroke:#181818;stroke-width:0.5;" width="255" x="104" y="1073.9722"/><text fill="#000000" font-family="sans-serif" font-size="12" lengthAdjust="spacing" textLength="235" x="114" y="1095.1108">Perbarui status tugas menjadi "Selesai"</text><rect fill="#F1F1F1" height="33.9688" rx="12.5" ry="12.5" style="stroke:#181818;stroke-width:0.5;" width="228" x="117.5" y="1127.9409"/><text fill="#000000" font-family="sans-serif" font-size="12" lengthAdjust="spacing" textLength="208" x="127.5" y="1149.0796">Aplikasi memperbarui status tugas</text><rect fill="#F1F1F1" height="33.9688" rx="12.5" ry="12.5" style="stroke:#181818;stroke-width:0.5;" width="387" x="38" y="1181.9097"/><text fill="#000000" font-family="sans-serif" font-size="12" lengthAdjust="spacing" textLength="367" x="48" y="1203.0483">Aplikasi memberi tahu pengguna tentang penyelesaian tugas</text><rect fill="#F1F1F1" height="33.9688" rx="12.5" ry="12.5" style="stroke:#181818;stroke-width:0.5;" width="260" x="525" y="966.0347"/><text fill="#000000" font-family="sans-serif" font-size="12" lengthAdjust="spacing" textLength="240" x="535" y="987.1733">Pengguna memilih untuk menunda tugas</text><rect fill="#F1F1F1" height="33.9688" rx="12.5" ry="12.5" style="stroke:#181818;stroke-width:0.5;" width="249" x="530.5" y="1020.0034"/><text fill="#000000" font-family="sans-serif" font-size="12" lengthAdjust="spacing" textLength="229" x="540.5" y="1041.1421">Pengguna memilih tugas untuk ditunda</text><rect fill="#F1F1F1" height="33.9688" rx="12.5" ry="12.5" style="stroke:#181818;stroke-width:0.5;" width="420" x="445" y="1073.9722"/><text fill="#000000" font-family="sans-serif" font-size="12" lengthAdjust="spacing" textLength="400" x="455" y="1095.1108">Pengguna menentukan tenggat waktu baru untuk tugas yang dipilih</text><rect fill="#F1F1F1" height="33.9688" rx="12.5" ry="12.5" style="stroke:#181818;stroke-width:0.5;" width="323" x="493.5" y="1127.9409"/><text fill="#000000" font-family="sans-serif" font-size="12" lengthAdjust="spacing" textLength="303" x="503.5" y="1149.0796">Perbarui tenggat waktu tugas dengan tanggal baru</text><rect fill="#F1F1F1" height="33.9688" rx="12.5" ry="12.5" style="stroke:#181818;stroke-width:0.5;" width="277" x="516.5" y="1181.9097"/><text fill="#000000" font-family="sans-serif" font-size="12" lengthAdjust="spacing" textLength="257" x="526.5" y="1203.0483">Aplikasi memperbarui tenggat waktu tugas</text><rect fill="#F1F1F1" height="33.9688" rx="12.5" ry="12.5" style="stroke:#181818;stroke-width:0.5;" width="386" x="462" y="1235.8784"/><text fill="#000000" font-family="sans-serif" font-size="12" lengthAdjust="spacing" textLength="366" x="472" y="1257.0171">Aplikasi memberi tahu pengguna tentang tenggat waktu baru</text><polygon fill="#F1F1F1" points="443.25,1275.8472,455.25,1287.8472,443.25,1299.8472,431.25,1287.8472,443.25,1275.8472" style="stroke:#181818;stroke-width:0.5;"/><polygon fill="#F1F1F1" points="356.25,283.2031,530.25,283.2031,542.25,295.2031,530.25,307.2031,356.25,307.2031,344.25,295.2031,356.25,283.2031" style="stroke:#181818;stroke-width:0.5;"/><text fill="#000000" font-family="sans-serif" font-size="11" lengthAdjust="spacing" textLength="14" x="447.25" y="317.4136">ya</text><text fill="#000000" font-family="sans-serif" font-size="11" lengthAdjust="spacing" textLength="174" x="356.25" y="299.0112">Tugas tersedia dengan detail?</text><rect fill="#F1F1F1" height="33.9688" rx="12.5" ry="12.5" style="stroke:#181818;stroke-width:0.5;" width="340" x="907" y="175.2656"/><text fill="#000000" font-family="sans-serif" font-size="12" lengthAdjust="spacing" textLength="320" x="917" y="196.4043">Tidak ada tugas dengan tenggat waktu yang tersedia</text><polygon fill="#F1F1F1" points="760.125,1327.8472,772.125,1339.8472,760.125,1351.8472,748.125,1339.8472,760.125,1327.8472" style="stroke:#181818;stroke-width:0.5;"/><rect fill="#F1F1F1" height="33.9688" rx="12.5" ry="12.5" style="stroke:#181818;stroke-width:0.5;" width="447" x="536.625" y="1371.8472"/><text fill="#000000" font-family="sans-serif" font-size="12" lengthAdjust="spacing" textLength="427" x="546.625" y="1392.9858">Pengguna dapat memilih untuk menambahkan tugas baru dengan detail</text><rect fill="#F1F1F1" height="33.9688" rx="12.5" ry="12.5" style="stroke:#181818;stroke-width:0.5;" width="260" x="630.125" y="1425.8159"/><text fill="#000000" font-family="sans-serif" font-size="12" lengthAdjust="spacing" textLength="240" x="640.125" y="1446.9546">Pengguna dapat mengatur atribut tugas:</text><rect fill="#F1F1F1" height="33.9688" rx="12.5" ry="12.5" style="stroke:#181818;stroke-width:0.5;" width="93" x="713.625" y="1479.7847"/><text fill="#000000" font-family="sans-serif" font-size="12" lengthAdjust="spacing" textLength="73" x="723.625" y="1500.9233">Nama Tugas</text><rect fill="#F1F1F1" height="33.9688" rx="12.5" ry="12.5" style="stroke:#181818;stroke-width:0.5;" width="77" x="721.625" y="1533.7534"/><text fill="#000000" font-family="sans-serif" font-size="12" lengthAdjust="spacing" textLength="57" x="731.625" y="1554.8921">Deskripsi</text><rect fill="#F1F1F1" height="33.9688" rx="12.5" ry="12.5" style="stroke:#181818;stroke-width:0.5;" width="238" x="641.125" y="1587.7222"/><text fill="#000000" font-family="sans-serif" font-size="12" lengthAdjust="spacing" textLength="218" x="651.125" y="1608.8608">Tenggat Waktu (Tanggal dan Waktu)</text><rect fill="#F1F1F1" height="33.9688" rx="12.5" ry="12.5" style="stroke:#181818;stroke-width:0.5;" width="224" x="648.125" y="1641.6909"/><text fill="#000000" font-family="sans-serif" font-size="12" lengthAdjust="spacing" textLength="204" x="658.125" y="1662.8296">Prioritas (Rendah, Sedang, Tinggi)</text><rect fill="#F1F1F1" height="33.9688" rx="12.5" ry="12.5" style="stroke:#181818;stroke-width:0.5;" width="208" x="656.125" y="1695.6597"/><text fill="#000000" font-family="sans-serif" font-size="12" lengthAdjust="spacing" textLength="188" x="666.125" y="1716.7983">Status (Belum Selesai, Selesai)</text><rect fill="#F1F1F1" height="33.9688" rx="12.5" ry="12.5" style="stroke:#181818;stroke-width:0.5;" width="252" x="634.125" y="1798.0308"/><text fill="#000000" font-family="sans-serif" font-size="12" lengthAdjust="spacing" textLength="232" x="644.125" y="1819.1694">Pengguna memilih tugas untuk dihapus</text><rect fill="#F1F1F1" height="33.9688" rx="12.5" ry="12.5" style="stroke:#181818;stroke-width:0.5;" width="249" x="635.625" y="1851.9995"/><text fill="#000000" font-family="sans-serif" font-size="12" lengthAdjust="spacing" textLength="229" x="645.625" y="1873.1382">Aplikasi menghapus tugas yang dipilih</text><rect fill="#F1F1F1" height="33.9688" rx="12.5" ry="12.5" style="stroke:#181818;stroke-width:0.5;" width="388" x="566.125" y="1905.9683"/><text fill="#000000" font-family="sans-serif" font-size="12" lengthAdjust="spacing" textLength="368" x="576.125" y="1927.1069">Aplikasi memberi tahu pengguna tentang penghapusan tugas</text><polygon fill="#F1F1F1" points="636.625,1749.6284,883.625,1749.6284,895.625,1761.6284,883.625,1773.6284,636.625,1773.6284,624.625,1761.6284,636.625,1749.6284" style="stroke:#181818;stroke-width:0.5;"/><text fill="#000000" font-family="sans-serif" font-size="11" lengthAdjust="spacing" textLength="14" x="764.125" y="1783.8389">ya</text><text fill="#000000" font-family="sans-serif" font-size="11" lengthAdjust="spacing" textLength="247" x="636.625" y="1765.4365">Pengguna memilih untuk menghapus tugas</text><polygon fill="#F1F1F1" points="760.125,1959.937,772.125,1971.937,760.125,1983.937,748.125,1971.937,760.125,1959.937" style="stroke:#181818;stroke-width:0.5;"/><rect fill="#F1F1F1" height="33.9688" rx="12.5" ry="12.5" style="stroke:#181818;stroke-width:0.5;" width="239" x="640.625" y="2052.3394"/><text fill="#000000" font-family="sans-serif" font-size="12" lengthAdjust="spacing" textLength="219" x="650.625" y="2073.478">Pengguna memilih tugas untuk diedit</text><rect fill="#F1F1F1" height="33.9688" rx="12.5" ry="12.5" style="stroke:#181818;stroke-width:0.5;" width="568" x="476.125" y="2106.3081"/><text fill="#000000" font-family="sans-serif" font-size="12" lengthAdjust="spacing" textLength="548" x="486.125" y="2127.4468">Pengguna dapat mengubah detail tugas (Nama, Deskripsi, Tenggat Waktu, Prioritas, Status)</text><rect fill="#F1F1F1" height="33.9688" rx="12.5" ry="12.5" style="stroke:#181818;stroke-width:0.5;" width="351" x="584.625" y="2175.2769"/><text fill="#000000" font-family="sans-serif" font-size="12" lengthAdjust="spacing" textLength="331" x="594.625" y="2196.4155">Aplikasi memperbarui tugas dengan detail yang diubah</text><rect fill="#F1F1F1" height="33.9688" rx="12.5" ry="12.5" style="stroke:#181818;stroke-width:0.5;" width="371" x="574.625" y="2229.2456"/><text fill="#000000" font-family="sans-serif" font-size="12" lengthAdjust="spacing" textLength="351" x="584.625" y="2250.3843">Aplikasi memberi tahu pengguna tentang perubahan tugas</text><polygon fill="#F1F1F1" points="642.625,2003.937,877.625,2003.937,889.625,2015.937,877.625,2027.937,642.625,2027.937,630.625,2015.937,642.625,2003.937" style="stroke:#181818;stroke-width:0.5;"/><text fill="#000000" font-family="sans-serif" font-size="11" lengthAdjust="spacing" textLength="14" x="764.125" y="2038.1475">ya</text><text fill="#000000" font-family="sans-serif" font-size="11" lengthAdjust="spacing" textLength="235" x="642.625" y="2019.7451">Pengguna memilih untuk mengedit tugas</text><polygon fill="#F1F1F1" points="760.125,2283.2144,772.125,2295.2144,760.125,2307.2144,748.125,2295.2144,760.125,2283.2144" style="stroke:#181818;stroke-width:0.5;"/><rect fill="#F1F1F1" height="33.9688" rx="12.5" ry="12.5" style="stroke:#181818;stroke-width:0.5;" width="260" x="630.125" y="2327.2144"/><text fill="#000000" font-family="sans-serif" font-size="12" lengthAdjust="spacing" textLength="240" x="640.125" y="2348.353">Pengguna dapat mengatur atribut tugas:</text><rect fill="#F1F1F1" height="33.9688" rx="12.5" ry="12.5" style="stroke:#181818;stroke-width:0.5;" width="93" x="713.625" y="2381.1831"/><text fill="#000000" font-family="sans-serif" font-size="12" lengthAdjust="spacing" textLength="73" x="723.625" y="2402.3218">Nama Tugas</text><rect fill="#F1F1F1" height="33.9688" rx="12.5" ry="12.5" style="stroke:#181818;stroke-width:0.5;" width="77" x="721.625" y="2435.1519"/><text fill="#000000" font-family="sans-serif" font-size="12" lengthAdjust="spacing" textLength="57" x="731.625" y="2456.2905">Deskripsi</text><rect fill="#F1F1F1" height="33.9688" rx="12.5" ry="12.5" style="stroke:#181818;stroke-width:0.5;" width="238" x="641.125" y="2489.1206"/><text fill="#000000" font-family="sans-serif" font-size="12" lengthAdjust="spacing" textLength="218" x="651.125" y="2510.2593">Tenggat Waktu (Tanggal dan Waktu)</text><rect fill="#F1F1F1" height="33.9688" rx="12.5" ry="12.5" style="stroke:#181818;stroke-width:0.5;" width="224" x="648.125" y="2543.0894"/><text fill="#000000" font-family="sans-serif" font-size="12" lengthAdjust="spacing" textLength="204" x="658.125" y="2564.228">Prioritas (Rendah, Sedang, Tinggi)</text><rect fill="#F1F1F1" height="33.9688" rx="12.5" ry="12.5" style="stroke:#181818;stroke-width:0.5;" width="208" x="656.125" y="2597.0581"/><text fill="#000000" font-family="sans-serif" font-size="12" lengthAdjust="spacing" textLength="188" x="666.125" y="2618.1968">Status (Belum Selesai, Selesai)</text><ellipse cx="760.125" cy="2662.0269" fill="none" rx="11" ry="11" style="stroke:#222222;stroke-width:1.0;"/><ellipse cx="760.125" cy="2662.0269" fill="#222222" rx="6" ry="6" style="stroke:#222222;stroke-width:1.0;"/><line style="stroke:#181818;stroke-width:1.0;" x1="760.125" x2="760.125" y1="67.2969" y2="87.2969"/><polygon fill="#181818" points="756.125,77.2969,760.125,87.2969,764.125,77.2969,760.125,81.2969" style="stroke:#181818;stroke-width:1.0;"/><line style="stroke:#181818;stroke-width:1.0;" x1="443.25" x2="443.25" y1="209.2344" y2="229.2344"/><polygon fill="#181818" points="439.25,219.2344,443.25,229.2344,447.25,219.2344,443.25,223.2344" style="stroke:#181818;stroke-width:1.0;"/><line style="stroke:#181818;stroke-width:1.0;" x1="443.25" x2="443.25" y1="372.8823" y2="392.8823"/><polygon fill="#181818" points="439.25,382.8823,443.25,392.8823,447.25,382.8823,443.25,386.8823" style="stroke:#181818;stroke-width:1.0;"/><line style="stroke:#181818;stroke-width:1.0;" x1="443.25" x2="443.25" y1="426.8511" y2="446.8511"/><polygon fill="#181818" points="439.25,436.8511,443.25,446.8511,447.25,436.8511,443.25,440.8511" style="stroke:#181818;stroke-width:1.0;"/><line style="stroke:#181818;stroke-width:1.0;" x1="443.25" x2="443.25" y1="480.8198" y2="500.8198"/><polygon fill="#181818" points="439.25,490.8198,443.25,500.8198,447.25,490.8198,443.25,494.8198" style="stroke:#181818;stroke-width:1.0;"/><line style="stroke:#181818;stroke-width:1.0;" x1="443.25" x2="443.25" y1="534.7886" y2="554.7886"/><polygon fill="#181818" points="439.25,544.7886,443.25,554.7886,447.25,544.7886,443.25,548.7886" style="stroke:#181818;stroke-width:1.0;"/><line style="stroke:#181818;stroke-width:1.0;" x1="443.25" x2="443.25" y1="588.7573" y2="608.7573"/><polygon fill="#181818" points="439.25,598.7573,443.25,608.7573,447.25,598.7573,443.25,602.7573" style="stroke:#181818;stroke-width:1.0;"/><line style="stroke:#181818;stroke-width:1.0;" x1="443.25" x2="443.25" y1="642.7261" y2="662.7261"/><polygon fill="#181818" points="439.25,652.7261,443.25,662.7261,447.25,652.7261,443.25,656.7261" style="stroke:#181818;stroke-width:1.0;"/><line style="stroke:#181818;stroke-width:1.0;" x1="443.25" x2="443.25" y1="799.0659" y2="834.0659"/><polygon fill="#181818" points="439.25,824.0659,443.25,834.0659,447.25,824.0659,443.25,828.0659" style="stroke:#181818;stroke-width:1.0;"/><line style="stroke:#181818;stroke-width:1.0;" x1="443.25" x2="443.25" y1="740.6948" y2="765.0972"/><polygon fill="#181818" points="439.25,755.0972,443.25,765.0972,447.25,755.0972,443.25,759.0972" style="stroke:#181818;stroke-width:1.0;"/><line style="stroke:#181818;stroke-width:1.0;" x1="584.75" x2="596.75" y1="728.6948" y2="728.6948"/><polygon fill="#181818" points="592.75,806.5659,596.75,816.5659,600.75,806.5659,596.75,810.5659" style="stroke:#181818;stroke-width:1.0;"/><line style="stroke:#181818;stroke-width:1.0;" x1="596.75" x2="596.75" y1="728.6948" y2="900.0347"/><line style="stroke:#181818;stroke-width:1.0;" x1="596.75" x2="455.25" y1="900.0347" y2="900.0347"/><polygon fill="#181818" points="465.25,896.0347,455.25,900.0347,465.25,904.0347,461.25,900.0347" style="stroke:#181818;stroke-width:1.0;"/><line style="stroke:#181818;stroke-width:1.0;" x1="443.25" x2="443.25" y1="868.0347" y2="888.0347"/><polygon fill="#181818" points="439.25,878.0347,443.25,888.0347,447.25,878.0347,443.25,882.0347" style="stroke:#181818;stroke-width:1.0;"/><line style="stroke:#181818;stroke-width:1.0;" x1="443.25" x2="443.25" y1="696.6948" y2="716.6948"/><polygon fill="#181818" points="439.25,706.6948,443.25,716.6948,447.25,706.6948,443.25,710.6948" style="stroke:#181818;stroke-width:1.0;"/><line style="stroke:#181818;stroke-width:1.0;" x1="231.5" x2="231.5" y1="1000.0034" y2="1020.0034"/><polygon fill="#181818" points="227.5,1010.0034,231.5,1020.0034,235.5,1010.0034,231.5,1014.0034" style="stroke:#181818;stroke-width:1.0;"/><line style="stroke:#181818;stroke-width:1.0;" x1="231.5" x2="231.5" y1="1053.9722" y2="1073.9722"/><polygon fill="#181818" points="227.5,1063.9722,231.5,1073.9722,235.5,1063.9722,231.5,1067.9722" style="stroke:#181818;stroke-width:1.0;"/><line style="stroke:#181818;stroke-width:1.0;" x1="231.5" x2="231.5" y1="1107.9409" y2="1127.9409"/><polygon fill="#181818" points="227.5,1117.9409,231.5,1127.9409,235.5,1117.9409,231.5,1121.9409" style="stroke:#181818;stroke-width:1.0;"/><line style="stroke:#181818;stroke-width:1.0;" x1="231.5" x2="231.5" y1="1161.9097" y2="1181.9097"/><polygon fill="#181818" points="227.5,1171.9097,231.5,1181.9097,235.5,1171.9097,231.5,1175.9097" style="stroke:#181818;stroke-width:1.0;"/><line style="stroke:#181818;stroke-width:1.0;" x1="655" x2="655" y1="1000.0034" y2="1020.0034"/><polygon fill="#181818" points="651,1010.0034,655,1020.0034,659,1010.0034,655,1014.0034" style="stroke:#181818;stroke-width:1.0;"/><line style="stroke:#181818;stroke-width:1.0;" x1="655" x2="655" y1="1053.9722" y2="1073.9722"/><polygon fill="#181818" points="651,1063.9722,655,1073.9722,659,1063.9722,655,1067.9722" style="stroke:#181818;stroke-width:1.0;"/><line style="stroke:#181818;stroke-width:1.0;" x1="655" x2="655" y1="1107.9409" y2="1127.9409"/><polygon fill="#181818" points="651,1117.9409,655,1127.9409,659,1117.9409,655,1121.9409" style="stroke:#181818;stroke-width:1.0;"/><line style="stroke:#181818;stroke-width:1.0;" x1="655" x2="655" y1="1161.9097" y2="1181.9097"/><polygon fill="#181818" points="651,1171.9097,655,1181.9097,659,1171.9097,655,1175.9097" style="stroke:#181818;stroke-width:1.0;"/><line style="stroke:#181818;stroke-width:1.0;" x1="655" x2="655" y1="1215.8784" y2="1235.8784"/><polygon fill="#181818" points="651,1225.8784,655,1235.8784,659,1225.8784,655,1229.8784" style="stroke:#181818;stroke-width:1.0;"/><line style="stroke:#181818;stroke-width:1.0;" x1="265.75" x2="231.5" y1="944.0347" y2="944.0347"/><line style="stroke:#181818;stroke-width:1.0;" x1="231.5" x2="231.5" y1="944.0347" y2="966.0347"/><polygon fill="#181818" points="227.5,956.0347,231.5,966.0347,235.5,956.0347,231.5,960.0347" style="stroke:#181818;stroke-width:1.0;"/><line style="stroke:#181818;stroke-width:1.0;" x1="620.75" x2="655" y1="944.0347" y2="944.0347"/><line style="stroke:#181818;stroke-width:1.0;" x1="655" x2="655" y1="944.0347" y2="966.0347"/><polygon fill="#181818" points="651,956.0347,655,966.0347,659,956.0347,655,960.0347" style="stroke:#181818;stroke-width:1.0;"/><line style="stroke:#181818;stroke-width:1.0;" x1="231.5" x2="231.5" y1="1215.8784" y2="1287.8472"/><line style="stroke:#181818;stroke-width:1.0;" x1="231.5" x2="431.25" y1="1287.8472" y2="1287.8472"/><polygon fill="#181818" points="421.25,1283.8472,431.25,1287.8472,421.25,1291.8472,425.25,1287.8472" style="stroke:#181818;stroke-width:1.0;"/><line style="stroke:#181818;stroke-width:1.0;" x1="655" x2="655" y1="1269.8472" y2="1287.8472"/><line style="stroke:#181818;stroke-width:1.0;" x1="655" x2="455.25" y1="1287.8472" y2="1287.8472"/><polygon fill="#181818" points="465.25,1283.8472,455.25,1287.8472,465.25,1291.8472,461.25,1287.8472" style="stroke:#181818;stroke-width:1.0;"/><line style="stroke:#181818;stroke-width:1.0;" x1="443.25" x2="443.25" y1="912.0347" y2="932.0347"/><polygon fill="#181818" points="439.25,922.0347,443.25,932.0347,447.25,922.0347,443.25,926.0347" style="stroke:#181818;stroke-width:1.0;"/><line style="stroke:#181818;stroke-width:1.0;" x1="443.25" x2="443.25" y1="307.2031" y2="338.9136"/><polygon fill="#181818" points="439.25,328.9136,443.25,338.9136,447.25,328.9136,443.25,332.9136" style="stroke:#181818;stroke-width:1.0;"/><line style="stroke:#181818;stroke-width:1.0;" x1="443.25" x2="443.25" y1="1299.8472" y2="1309.8472"/><line style="stroke:#181818;stroke-width:1.0;" x1="443.25" x2="887" y1="1309.8472" y2="1309.8472"/><polygon fill="#181818" points="883,805.6792,887,795.6792,891,805.6792,887,801.6792" style="stroke:#181818;stroke-width:1.0;"/><line style="stroke:#181818;stroke-width:1.0;" x1="887" x2="887" y1="295.2031" y2="1309.8472"/><line style="stroke:#181818;stroke-width:1.0;" x1="887" x2="542.25" y1="295.2031" y2="295.2031"/><polygon fill="#181818" points="552.25,291.2031,542.25,295.2031,552.25,299.2031,548.25,295.2031" style="stroke:#181818;stroke-width:1.0;"/><line style="stroke:#181818;stroke-width:1.0;" x1="344.25" x2="24" y1="295.2031" y2="295.2031"/><polygon fill="#181818" points="20,800.6792,24,810.6792,28,800.6792,24,804.6792" style="stroke:#181818;stroke-width:1.0;"/><line style="stroke:#181818;stroke-width:1.0;" x1="24" x2="24" y1="295.2031" y2="1339.8472"/><line style="stroke:#181818;stroke-width:1.0;" x1="24" x2="748.125" y1="1339.8472" y2="1339.8472"/><polygon fill="#181818" points="738.125,1335.8472,748.125,1339.8472,738.125,1343.8472,742.125,1339.8472" style="stroke:#181818;stroke-width:1.0;"/><line style="stroke:#181818;stroke-width:1.0;" x1="443.25" x2="443.25" y1="263.2031" y2="283.2031"/><polygon fill="#181818" points="439.25,273.2031,443.25,283.2031,447.25,273.2031,443.25,277.2031" style="stroke:#181818;stroke-width:1.0;"/><line style="stroke:#181818;stroke-width:1.0;" x1="662.125" x2="443.25" y1="153.2656" y2="153.2656"/><line style="stroke:#181818;stroke-width:1.0;" x1="443.25" x2="443.25" y1="153.2656" y2="175.2656"/><polygon fill="#181818" points="439.25,165.2656,443.25,175.2656,447.25,165.2656,443.25,169.2656" style="stroke:#181818;stroke-width:1.0;"/><line style="stroke:#181818;stroke-width:1.0;" x1="858.125" x2="1077" y1="153.2656" y2="153.2656"/><line style="stroke:#181818;stroke-width:1.0;" x1="1077" x2="1077" y1="153.2656" y2="175.2656"/><polygon fill="#181818" points="1073,165.2656,1077,175.2656,1081,165.2656,1077,169.2656" style="stroke:#181818;stroke-width:1.0;"/><line style="stroke:#181818;stroke-width:1.0;" x1="1077" x2="1077" y1="209.2344" y2="1339.8472"/><line style="stroke:#181818;stroke-width:1.0;" x1="1077" x2="772.125" y1="1339.8472" y2="1339.8472"/><polygon fill="#181818" points="782.125,1335.8472,772.125,1339.8472,782.125,1343.8472,778.125,1339.8472" style="stroke:#181818;stroke-width:1.0;"/><line style="stroke:#181818;stroke-width:1.0;" x1="760.125" x2="760.125" y1="121.2656" y2="141.2656"/><polygon fill="#181818" points="756.125,131.2656,760.125,141.2656,764.125,131.2656,760.125,135.2656" style="stroke:#181818;stroke-width:1.0;"/><line style="stroke:#181818;stroke-width:1.0;" x1="760.125" x2="760.125" y1="1351.8472" y2="1371.8472"/><polygon fill="#181818" points="756.125,1361.8472,760.125,1371.8472,764.125,1361.8472,760.125,1365.8472" style="stroke:#181818;stroke-width:1.0;"/><line style="stroke:#181818;stroke-width:1.0;" x1="760.125" x2="760.125" y1="1405.8159" y2="1425.8159"/><polygon fill="#181818" points="756.125,1415.8159,760.125,1425.8159,764.125,1415.8159,760.125,1419.8159" style="stroke:#181818;stroke-width:1.0;"/><line style="stroke:#181818;stroke-width:1.0;" x1="760.125" x2="760.125" y1="1459.7847" y2="1479.7847"/><polygon fill="#181818" points="756.125,1469.7847,760.125,1479.7847,764.125,1469.7847,760.125,1473.7847" style="stroke:#181818;stroke-width:1.0;"/><line style="stroke:#181818;stroke-width:1.0;" x1="760.125" x2="760.125" y1="1513.7534" y2="1533.7534"/><polygon fill="#181818" points="756.125,1523.7534,760.125,1533.7534,764.125,1523.7534,760.125,1527.7534" style="stroke:#181818;stroke-width:1.0;"/><line style="stroke:#181818;stroke-width:1.0;" x1="760.125" x2="760.125" y1="1567.7222" y2="1587.7222"/><polygon fill="#181818" points="756.125,1577.7222,760.125,1587.7222,764.125,1577.7222,760.125,1581.7222" style="stroke:#181818;stroke-width:1.0;"/><line style="stroke:#181818;stroke-width:1.0;" x1="760.125" x2="760.125" y1="1621.6909" y2="1641.6909"/><polygon fill="#181818" points="756.125,1631.6909,760.125,1641.6909,764.125,1631.6909,760.125,1635.6909" style="stroke:#181818;stroke-width:1.0;"/><line style="stroke:#181818;stroke-width:1.0;" x1="760.125" x2="760.125" y1="1675.6597" y2="1695.6597"/><polygon fill="#181818" points="756.125,1685.6597,760.125,1695.6597,764.125,1685.6597,760.125,1689.6597" style="stroke:#181818;stroke-width:1.0;"/><line style="stroke:#181818;stroke-width:1.0;" x1="760.125" x2="760.125" y1="1831.9995" y2="1851.9995"/><polygon fill="#181818" points="756.125,1841.9995,760.125,1851.9995,764.125,1841.9995,760.125,1845.9995" style="stroke:#181818;stroke-width:1.0;"/><line style="stroke:#181818;stroke-width:1.0;" x1="760.125" x2="760.125" y1="1885.9683" y2="1905.9683"/><polygon fill="#181818" points="756.125,1895.9683,760.125,1905.9683,764.125,1895.9683,760.125,1899.9683" style="stroke:#181818;stroke-width:1.0;"/><line style="stroke:#181818;stroke-width:1.0;" x1="760.125" x2="760.125" y1="1773.6284" y2="1798.0308"/><polygon fill="#181818" points="756.125,1788.0308,760.125,1798.0308,764.125,1788.0308,760.125,1792.0308" style="stroke:#181818;stroke-width:1.0;"/><line style="stroke:#181818;stroke-width:1.0;" x1="895.625" x2="964.125" y1="1761.6284" y2="1761.6284"/><polygon fill="#181818" points="960.125,1858.9839,964.125,1868.9839,968.125,1858.9839,964.125,1862.9839" style="stroke:#181818;stroke-width:1.0;"/><line style="stroke:#181818;stroke-width:1.0;" x1="964.125" x2="964.125" y1="1761.6284" y2="1971.937"/><line style="stroke:#181818;stroke-width:1.0;" x1="964.125" x2="772.125" y1="1971.937" y2="1971.937"/><polygon fill="#181818" points="782.125,1967.937,772.125,1971.937,782.125,1975.937,778.125,1971.937" style="stroke:#181818;stroke-width:1.0;"/><line style="stroke:#181818;stroke-width:1.0;" x1="760.125" x2="760.125" y1="1939.937" y2="1959.937"/><polygon fill="#181818" points="756.125,1949.937,760.125,1959.937,764.125,1949.937,760.125,1953.937" style="stroke:#181818;stroke-width:1.0;"/><line style="stroke:#181818;stroke-width:1.0;" x1="760.125" x2="760.125" y1="1729.6284" y2="1749.6284"/><polygon fill="#181818" points="756.125,1739.6284,760.125,1749.6284,764.125,1739.6284,760.125,1743.6284" style="stroke:#181818;stroke-width:1.0;"/><line style="stroke:#181818;stroke-width:1.0;" x1="760.125" x2="760.125" y1="2086.3081" y2="2106.3081"/><polygon fill="#181818" points="756.125,2096.3081,760.125,2106.3081,764.125,2096.3081,760.125,2100.3081" style="stroke:#181818;stroke-width:1.0;"/><line style="stroke:#181818;stroke-width:1.0;" x1="760.125" x2="760.125" y1="2140.2769" y2="2175.2769"/><polygon fill="#181818" points="756.125,2165.2769,760.125,2175.2769,764.125,2165.2769,760.125,2169.2769" style="stroke:#181818;stroke-width:1.0;"/><line style="stroke:#181818;stroke-width:1.0;" x1="760.125" x2="760.125" y1="2209.2456" y2="2229.2456"/><polygon fill="#181818" points="756.125,2219.2456,760.125,2229.2456,764.125,2219.2456,760.125,2223.2456" style="stroke:#181818;stroke-width:1.0;"/><line style="stroke:#181818;stroke-width:1.0;" x1="760.125" x2="760.125" y1="2027.937" y2="2052.3394"/><polygon fill="#181818" points="756.125,2042.3394,760.125,2052.3394,764.125,2042.3394,760.125,2046.3394" style="stroke:#181818;stroke-width:1.0;"/><line style="stroke:#181818;stroke-width:1.0;" x1="889.625" x2="1054.125" y1="2015.937" y2="2015.937"/><polygon fill="#181818" points="1050.125,2147.7769,1054.125,2157.7769,1058.125,2147.7769,1054.125,2151.7769" style="stroke:#181818;stroke-width:1.0;"/><line style="stroke:#181818;stroke-width:1.0;" x1="1054.125" x2="1054.125" y1="2015.937" y2="2295.2144"/><line style="stroke:#181818;stroke-width:1.0;" x1="1054.125" x2="772.125" y1="2295.2144" y2="2295.2144"/><polygon fill="#181818" points="782.125,2291.2144,772.125,2295.2144,782.125,2299.2144,778.125,2295.2144" style="stroke:#181818;stroke-width:1.0;"/><line style="stroke:#181818;stroke-width:1.0;" x1="760.125" x2="760.125" y1="2263.2144" y2="2283.2144"/><polygon fill="#181818" points="756.125,2273.2144,760.125,2283.2144,764.125,2273.2144,760.125,2277.2144" style="stroke:#181818;stroke-width:1.0;"/><line style="stroke:#181818;stroke-width:1.0;" x1="760.125" x2="760.125" y1="1983.937" y2="2003.937"/><polygon fill="#181818" points="756.125,1993.937,760.125,2003.937,764.125,1993.937,760.125,1997.937" style="stroke:#181818;stroke-width:1.0;"/><line style="stroke:#181818;stroke-width:1.0;" x1="760.125" x2="760.125" y1="2307.2144" y2="2327.2144"/><polygon fill="#181818" points="756.125,2317.2144,760.125,2327.2144,764.125,2317.2144,760.125,2321.2144" style="stroke:#181818;stroke-width:1.0;"/><line style="stroke:#181818;stroke-width:1.0;" x1="760.125" x2="760.125" y1="2361.1831" y2="2381.1831"/><polygon fill="#181818" points="756.125,2371.1831,760.125,2381.1831,764.125,2371.1831,760.125,2375.1831" style="stroke:#181818;stroke-width:1.0;"/><line style="stroke:#181818;stroke-width:1.0;" x1="760.125" x2="760.125" y1="2415.1519" y2="2435.1519"/><polygon fill="#181818" points="756.125,2425.1519,760.125,2435.1519,764.125,2425.1519,760.125,2429.1519" style="stroke:#181818;stroke-width:1.0;"/><line style="stroke:#181818;stroke-width:1.0;" x1="760.125" x2="760.125" y1="2469.1206" y2="2489.1206"/><polygon fill="#181818" points="756.125,2479.1206,760.125,2489.1206,764.125,2479.1206,760.125,2483.1206" style="stroke:#181818;stroke-width:1.0;"/><line style="stroke:#181818;stroke-width:1.0;" x1="760.125" x2="760.125" y1="2523.0894" y2="2543.0894"/><polygon fill="#181818" points="756.125,2533.0894,760.125,2543.0894,764.125,2533.0894,760.125,2537.0894" style="stroke:#181818;stroke-width:1.0;"/><line style="stroke:#181818;stroke-width:1.0;" x1="760.125" x2="760.125" y1="2577.0581" y2="2597.0581"/><polygon fill="#181818" points="756.125,2587.0581,760.125,2597.0581,764.125,2587.0581,760.125,2591.0581" style="stroke:#181818;stroke-width:1.0;"/><line style="stroke:#181818;stroke-width:1.0;" x1="760.125" x2="760.125" y1="2631.0269" y2="2651.0269"/><polygon fill="#181818" points="756.125,2641.0269,760.125,2651.0269,764.125,2641.0269,760.125,2645.0269" style="stroke:#181818;stroke-width:1.0;"/><!--SRC=[rLLDRzim3BtxLn0z9K3s1-B3iA6NNOPWpR0pCwisPrinB0f5__r8oKhyrJRPRHT3bib7liSFCt5Zu61iIRP4XgClqMMPO-mvs-jzwIr2QzgJhn6mQwX6HtEFFCle6JRX38LyGmkipcBmWZNxprlWobZOlE8s0zX_IK3E_COUuSpd5fbSY6Hw-MQXkyJmbdqDhEYVmXDUqPPgIm93qr2vueyojmBNeg05OCRAn-HO8HQO5VPUA90pZN6eUGWtW9UAHAU189lUcO8mCIqC8pL2KV8V24eAFqFIpZ1X5-CaU-IUJfxtUJJyzfX43A_VKR8TNpmQL_VKEHhUZmFRNyfMSa9zRQ0Gv72r7UmEFPsLi2JrmzW2gnqy6R4gTt0KNKjAXa-CBAGtNqtZMx49p7Vfi0q206Y1nmqXqbT3PLeZPyae2X79JWiU4vfxHrKYHa5ZZ3pvN1f52ebjHurs1jddSz_gxJXYz16cz7n3nXP54XfISEQ49MetHiftvyuHROPpON4S1mjzLb0NODxoE9Z-9Aqe7s9negka_GSBWeUXDWzhEhNTck-gfKu4w4Y4OGlyqcJ8nMiCekCoqhTnCWXC1TPlYtCHsGllMVoFb5INDMDhr6A-M42PZXV4HDwbd5FdoLZoC4Xg-BwkAo3tohiaCMjVEOIbasKpnVT7FG4cOLVtRLGXBQey6s2lUXROYUroADeJLdMgU1HtikNo5GpTqRvFQoswodBB9gjilCPkMM4thQyRLjVxIw2ii4iJClj5VT2dmJ7FPYjgZBVen3j6B-9S9s-etmTafDRyBrpKR_hRl9RMIqDCrYnijAmxkDHJwZ4kvmukbPD2XFfi5-olepHkuI7Ce9j6la-sNbqMelrd3UlutFq5]--></g></svg>