<?xml version="1.0" encoding="us-ascii" standalone="no"?><svg xmlns="http://www.w3.org/2000/svg" xmlns:xlink="http://www.w3.org/1999/xlink" contentStyleType="text/css" height="1497px" preserveAspectRatio="none" style="width:1030px;height:1497px;background:#FFFFFF;" version="1.1" viewBox="0 0 1030 1497" width="1030px" zoomAndPan="magnify"><defs/><g><text fill="#000000" font-family="sans-serif" font-size="14" font-weight="bold" lengthAdjust="spacing" textLength="165" x="431" y="32.9951">Melihat Jadwal Kerja</text><ellipse cx="678.375" cy="57.2969" fill="#222222" rx="10" ry="10" style="stroke:#222222;stroke-width:1.0;"/><rect fill="#F1F1F1" height="33.9688" rx="12.5" ry="12.5" style="stroke:#181818;stroke-width:0.5;" width="266" x="545.375" y="87.2969"/><text fill="#000000" font-family="sans-serif" font-size="12" lengthAdjust="spacing" textLength="242" x="559.375" y="108.4355">Pengguna memilih "Melihat Jadwal Kerja"</text><polygon fill="#F1F1F1" points="545.375,141.2656,811.375,141.2656,823.375,153.2656,811.375,165.2656,545.375,165.2656,533.375,153.2656,545.375,141.2656" style="stroke:#181818;stroke-width:0.5;"/><text fill="#000000" font-family="sans-serif" font-size="11" lengthAdjust="spacing" textLength="266" x="545.375" y="157.0737">Pilihan Pengguna adalah "Melihat Jadwal Kerja"</text><text fill="#000000" font-family="sans-serif" font-size="11" lengthAdjust="spacing" textLength="14" x="519.375" y="150.6714">Ya</text><text fill="#000000" font-family="sans-serif" font-size="11" lengthAdjust="spacing" textLength="30" x="823.375" y="150.6714">Tidak</text><rect fill="#F1F1F1" height="33.9688" rx="12.5" ry="12.5" style="stroke:#181818;stroke-width:0.5;" width="280" x="290.75" y="175.2656"/><text fill="#000000" font-family="sans-serif" font-size="12" lengthAdjust="spacing" textLength="256" x="304.75" y="196.4043">Aplikasi mengambil jadwal kerja pengguna</text><polygon fill="#F1F1F1" points="366.25,229.2344,495.25,229.2344,507.25,241.2344,495.25,253.2344,366.25,253.2344,354.25,241.2344,366.25,229.2344" style="stroke:#181818;stroke-width:0.5;"/><text fill="#000000" font-family="sans-serif" font-size="11" lengthAdjust="spacing" textLength="129" x="366.25" y="245.0425">Jadwal Kerja Tersedia?</text><text fill="#000000" font-family="sans-serif" font-size="11" lengthAdjust="spacing" textLength="14" x="340.25" y="238.6401">Ya</text><text fill="#000000" font-family="sans-serif" font-size="11" lengthAdjust="spacing" textLength="30" x="507.25" y="238.6401">Tidak</text><rect fill="#F1F1F1" height="33.9688" rx="12.5" ry="12.5" style="stroke:#181818;stroke-width:0.5;" width="293" x="84.5" y="263.2344"/><text fill="#000000" font-family="sans-serif" font-size="12" lengthAdjust="spacing" textLength="269" x="98.5" y="284.373">Aplikasi menampilkan jadwal kerja pengguna</text><rect fill="#F1F1F1" height="33.9688" rx="12.5" ry="12.5" style="stroke:#181818;stroke-width:0.5;" width="390" x="36" y="372.9136"/><text fill="#000000" font-family="sans-serif" font-size="12" lengthAdjust="spacing" textLength="366" x="50" y="394.0522">Untuk setiap entri jadwal kerja dengan atribut-atribut berikut:</text><rect fill="#F1F1F1" height="33.9688" rx="12.5" ry="12.5" style="stroke:#181818;stroke-width:0.5;" width="167" x="147.5" y="426.8823"/><text fill="#000000" font-family="sans-serif" font-size="12" lengthAdjust="spacing" textLength="143" x="161.5" y="448.021">Tanggal Kerja (Tanggal)</text><rect fill="#F1F1F1" height="33.9688" rx="12.5" ry="12.5" style="stroke:#181818;stroke-width:0.5;" width="203" x="129.5" y="480.8511"/><text fill="#000000" font-family="sans-serif" font-size="12" lengthAdjust="spacing" textLength="179" x="143.5" y="501.9897">Waktu Masuk (HH:mm AM/PM)</text><rect fill="#F1F1F1" height="33.9688" rx="12.5" ry="12.5" style="stroke:#181818;stroke-width:0.5;" width="203" x="129.5" y="534.8198"/><text fill="#000000" font-family="sans-serif" font-size="12" lengthAdjust="spacing" textLength="179" x="143.5" y="555.9585">Waktu Keluar (HH:mm AM/PM)</text><rect fill="#F1F1F1" height="33.9688" rx="12.5" ry="12.5" style="stroke:#181818;stroke-width:0.5;" width="172" x="145" y="588.7886"/><text fill="#000000" font-family="sans-serif" font-size="12" lengthAdjust="spacing" textLength="148" x="159" y="609.9272">Total Jam Kerja (HH:mm)</text><rect fill="#F1F1F1" height="33.9688" rx="12.5" ry="12.5" style="stroke:#181818;stroke-width:0.5;" width="168" x="147" y="642.7573"/><text fill="#000000" font-family="sans-serif" font-size="12" lengthAdjust="spacing" textLength="144" x="161" y="663.896">Tugas/Proyek (Nama/ID)</text><rect fill="#F1F1F1" height="33.9688" rx="12.5" ry="12.5" style="stroke:#181818;stroke-width:0.5;" width="178" x="142" y="696.7261"/><text fill="#000000" font-family="sans-serif" font-size="12" lengthAdjust="spacing" textLength="154" x="156" y="717.8647">Lokasi (Kantor/Jarak Jauh)</text><rect fill="#F1F1F1" height="33.9688" rx="12.5" ry="12.5" style="stroke:#181818;stroke-width:0.5;" width="204" x="129" y="750.6948"/><text fill="#000000" font-family="sans-serif" font-size="12" lengthAdjust="spacing" textLength="180" x="143" y="771.8335">Istirahat yang Diambil (Durasi)</text><rect fill="#F1F1F1" height="33.9688" rx="12.5" ry="12.5" style="stroke:#181818;stroke-width:0.5;" width="298" x="82" y="853.0659"/><text fill="#000000" font-family="sans-serif" font-size="12" lengthAdjust="spacing" textLength="274" x="96" y="874.2046">Pengguna mengklik entri jadwal kerja tertentu</text><rect fill="#F1F1F1" height="33.9688" rx="12.5" ry="12.5" style="stroke:#181818;stroke-width:0.5;" width="274" x="94" y="907.0347"/><text fill="#000000" font-family="sans-serif" font-size="12" lengthAdjust="spacing" textLength="250" x="108" y="928.1733">Aplikasi menampilkan informasi terperinci</text><rect fill="#F1F1F1" height="33.9688" rx="12.5" ry="12.5" style="stroke:#181818;stroke-width:0.5;" width="232" x="115" y="961.0034"/><text fill="#000000" font-family="sans-serif" font-size="12" lengthAdjust="spacing" textLength="208" x="129" y="982.1421">Tanggal Kerja Terperinci (Tanggal)</text><rect fill="#F1F1F1" height="33.9688" rx="12.5" ry="12.5" style="stroke:#181818;stroke-width:0.5;" width="268" x="97" y="1014.9722"/><text fill="#000000" font-family="sans-serif" font-size="12" lengthAdjust="spacing" textLength="244" x="111" y="1036.1108">Waktu Masuk Terperinci (HH:mm AM/PM)</text><rect fill="#F1F1F1" height="33.9688" rx="12.5" ry="12.5" style="stroke:#181818;stroke-width:0.5;" width="268" x="97" y="1068.9409"/><text fill="#000000" font-family="sans-serif" font-size="12" lengthAdjust="spacing" textLength="244" x="111" y="1090.0796">Waktu Keluar Terperinci (HH:mm AM/PM)</text><rect fill="#F1F1F1" height="33.9688" rx="12.5" ry="12.5" style="stroke:#181818;stroke-width:0.5;" width="237" x="112.5" y="1122.9097"/><text fill="#000000" font-family="sans-serif" font-size="12" lengthAdjust="spacing" textLength="213" x="126.5" y="1144.0483">Total Jam Kerja Terperinci (HH:mm)</text><rect fill="#F1F1F1" height="33.9688" rx="12.5" ry="12.5" style="stroke:#181818;stroke-width:0.5;" width="233" x="114.5" y="1176.8784"/><text fill="#000000" font-family="sans-serif" font-size="12" lengthAdjust="spacing" textLength="209" x="128.5" y="1198.0171">Tugas/Proyek Terperinci (Nama/ID)</text><rect fill="#F1F1F1" height="33.9688" rx="12.5" ry="12.5" style="stroke:#181818;stroke-width:0.5;" width="243" x="109.5" y="1230.8472"/><text fill="#000000" font-family="sans-serif" font-size="12" lengthAdjust="spacing" textLength="219" x="123.5" y="1251.9858">Lokasi Terperinci (Kantor/Jarak Jauh)</text><rect fill="#F1F1F1" height="33.9688" rx="12.5" ry="12.5" style="stroke:#181818;stroke-width:0.5;" width="269" x="96.5" y="1284.8159"/><text fill="#000000" font-family="sans-serif" font-size="12" lengthAdjust="spacing" textLength="245" x="110.5" y="1305.9546">Istirahat yang Diambil Terperinci (Durasi)</text><polygon fill="#F1F1F1" points="127,804.6636,335,804.6636,347,816.6636,335,828.6636,127,828.6636,115,816.6636,127,804.6636" style="stroke:#181818;stroke-width:0.5;"/><text fill="#000000" font-family="sans-serif" font-size="11" lengthAdjust="spacing" textLength="14" x="235" y="838.874">Ya</text><text fill="#000000" font-family="sans-serif" font-size="11" lengthAdjust="spacing" textLength="208" x="127" y="820.4717">Pengguna memilih entri jadwal kerja</text><polygon fill="#F1F1F1" points="231,1338.7847,243,1350.7847,231,1362.7847,219,1350.7847,231,1338.7847" style="stroke:#181818;stroke-width:0.5;"/><polygon fill="#F1F1F1" points="152,317.2031,310,317.2031,322,329.2031,310,341.2031,152,341.2031,140,329.2031,152,317.2031" style="stroke:#181818;stroke-width:0.5;"/><text fill="#000000" font-family="sans-serif" font-size="11" lengthAdjust="spacing" textLength="14" x="235" y="351.4136">Ya</text><text fill="#000000" font-family="sans-serif" font-size="11" lengthAdjust="spacing" textLength="158" x="152" y="333.0112">Entri Jadwal Kerja Tersedia?</text><rect fill="#F1F1F1" height="33.9688" rx="12.5" ry="12.5" style="stroke:#181818;stroke-width:0.5;" width="345" x="458" y="263.2344"/><text fill="#000000" font-family="sans-serif" font-size="12" lengthAdjust="spacing" textLength="321" x="472" y="284.373">Tidak ada jadwal kerja yang tersedia untuk pengguna</text><polygon fill="#F1F1F1" points="430.75,1390.7847,442.75,1402.7847,430.75,1414.7847,418.75,1402.7847,430.75,1390.7847" style="stroke:#181818;stroke-width:0.5;"/><rect fill="#F1F1F1" height="33.9688" rx="12.5" ry="12.5" style="stroke:#181818;stroke-width:0.5;" width="186" x="833" y="175.2656"/><text fill="#000000" font-family="sans-serif" font-size="12" lengthAdjust="spacing" textLength="162" x="847" y="196.4043">Pengguna memilih opsi lain</text><polygon fill="#F1F1F1" points="678.375,1420.7847,690.375,1432.7847,678.375,1444.7847,666.375,1432.7847,678.375,1420.7847" style="stroke:#181818;stroke-width:0.5;"/><ellipse cx="678.375" cy="1475.7847" fill="none" rx="11" ry="11" style="stroke:#222222;stroke-width:1.0;"/><ellipse cx="678.375" cy="1475.7847" fill="#222222" rx="6" ry="6" style="stroke:#222222;stroke-width:1.0;"/><line style="stroke:#181818;stroke-width:1.0;" x1="678.375" x2="678.375" y1="67.2969" y2="87.2969"/><polygon fill="#181818" points="674.375,77.2969,678.375,87.2969,682.375,77.2969,678.375,81.2969" style="stroke:#181818;stroke-width:1.0;"/><line style="stroke:#181818;stroke-width:1.0;" x1="231" x2="231" y1="406.8823" y2="426.8823"/><polygon fill="#181818" points="227,416.8823,231,426.8823,235,416.8823,231,420.8823" style="stroke:#181818;stroke-width:1.0;"/><line style="stroke:#181818;stroke-width:1.0;" x1="231" x2="231" y1="460.8511" y2="480.8511"/><polygon fill="#181818" points="227,470.8511,231,480.8511,235,470.8511,231,474.8511" style="stroke:#181818;stroke-width:1.0;"/><line style="stroke:#181818;stroke-width:1.0;" x1="231" x2="231" y1="514.8198" y2="534.8198"/><polygon fill="#181818" points="227,524.8198,231,534.8198,235,524.8198,231,528.8198" style="stroke:#181818;stroke-width:1.0;"/><line style="stroke:#181818;stroke-width:1.0;" x1="231" x2="231" y1="568.7886" y2="588.7886"/><polygon fill="#181818" points="227,578.7886,231,588.7886,235,578.7886,231,582.7886" style="stroke:#181818;stroke-width:1.0;"/><line style="stroke:#181818;stroke-width:1.0;" x1="231" x2="231" y1="622.7573" y2="642.7573"/><polygon fill="#181818" points="227,632.7573,231,642.7573,235,632.7573,231,636.7573" style="stroke:#181818;stroke-width:1.0;"/><line style="stroke:#181818;stroke-width:1.0;" x1="231" x2="231" y1="676.7261" y2="696.7261"/><polygon fill="#181818" points="227,686.7261,231,696.7261,235,686.7261,231,690.7261" style="stroke:#181818;stroke-width:1.0;"/><line style="stroke:#181818;stroke-width:1.0;" x1="231" x2="231" y1="730.6948" y2="750.6948"/><polygon fill="#181818" points="227,740.6948,231,750.6948,235,740.6948,231,744.6948" style="stroke:#181818;stroke-width:1.0;"/><line style="stroke:#181818;stroke-width:1.0;" x1="231" x2="231" y1="887.0347" y2="907.0347"/><polygon fill="#181818" points="227,897.0347,231,907.0347,235,897.0347,231,901.0347" style="stroke:#181818;stroke-width:1.0;"/><line style="stroke:#181818;stroke-width:1.0;" x1="231" x2="231" y1="941.0034" y2="961.0034"/><polygon fill="#181818" points="227,951.0034,231,961.0034,235,951.0034,231,955.0034" style="stroke:#181818;stroke-width:1.0;"/><line style="stroke:#181818;stroke-width:1.0;" x1="231" x2="231" y1="994.9722" y2="1014.9722"/><polygon fill="#181818" points="227,1004.9722,231,1014.9722,235,1004.9722,231,1008.9722" style="stroke:#181818;stroke-width:1.0;"/><line style="stroke:#181818;stroke-width:1.0;" x1="231" x2="231" y1="1048.9409" y2="1068.9409"/><polygon fill="#181818" points="227,1058.9409,231,1068.9409,235,1058.9409,231,1062.9409" style="stroke:#181818;stroke-width:1.0;"/><line style="stroke:#181818;stroke-width:1.0;" x1="231" x2="231" y1="1102.9097" y2="1122.9097"/><polygon fill="#181818" points="227,1112.9097,231,1122.9097,235,1112.9097,231,1116.9097" style="stroke:#181818;stroke-width:1.0;"/><line style="stroke:#181818;stroke-width:1.0;" x1="231" x2="231" y1="1156.8784" y2="1176.8784"/><polygon fill="#181818" points="227,1166.8784,231,1176.8784,235,1166.8784,231,1170.8784" style="stroke:#181818;stroke-width:1.0;"/><line style="stroke:#181818;stroke-width:1.0;" x1="231" x2="231" y1="1210.8472" y2="1230.8472"/><polygon fill="#181818" points="227,1220.8472,231,1230.8472,235,1220.8472,231,1224.8472" style="stroke:#181818;stroke-width:1.0;"/><line style="stroke:#181818;stroke-width:1.0;" x1="231" x2="231" y1="1264.8159" y2="1284.8159"/><polygon fill="#181818" points="227,1274.8159,231,1284.8159,235,1274.8159,231,1278.8159" style="stroke:#181818;stroke-width:1.0;"/><line style="stroke:#181818;stroke-width:1.0;" x1="231" x2="231" y1="828.6636" y2="853.0659"/><polygon fill="#181818" points="227,843.0659,231,853.0659,235,843.0659,231,847.0659" style="stroke:#181818;stroke-width:1.0;"/><line style="stroke:#181818;stroke-width:1.0;" x1="347" x2="390" y1="816.6636" y2="816.6636"/><polygon fill="#181818" points="386,1075.9253,390,1085.9253,394,1075.9253,390,1079.9253" style="stroke:#181818;stroke-width:1.0;"/><line style="stroke:#181818;stroke-width:1.0;" x1="390" x2="390" y1="816.6636" y2="1350.7847"/><line style="stroke:#181818;stroke-width:1.0;" x1="390" x2="243" y1="1350.7847" y2="1350.7847"/><polygon fill="#181818" points="253,1346.7847,243,1350.7847,253,1354.7847,249,1350.7847" style="stroke:#181818;stroke-width:1.0;"/><line style="stroke:#181818;stroke-width:1.0;" x1="231" x2="231" y1="1318.7847" y2="1338.7847"/><polygon fill="#181818" points="227,1328.7847,231,1338.7847,235,1328.7847,231,1332.7847" style="stroke:#181818;stroke-width:1.0;"/><line style="stroke:#181818;stroke-width:1.0;" x1="231" x2="231" y1="784.6636" y2="804.6636"/><polygon fill="#181818" points="227,794.6636,231,804.6636,235,794.6636,231,798.6636" style="stroke:#181818;stroke-width:1.0;"/><line style="stroke:#181818;stroke-width:1.0;" x1="231" x2="231" y1="341.2031" y2="372.9136"/><polygon fill="#181818" points="227,362.9136,231,372.9136,235,362.9136,231,366.9136" style="stroke:#181818;stroke-width:1.0;"/><line style="stroke:#181818;stroke-width:1.0;" x1="231" x2="231" y1="1362.7847" y2="1372.7847"/><line style="stroke:#181818;stroke-width:1.0;" x1="231" x2="438" y1="1372.7847" y2="1372.7847"/><polygon fill="#181818" points="434,861.6479,438,851.6479,442,861.6479,438,857.6479" style="stroke:#181818;stroke-width:1.0;"/><line style="stroke:#181818;stroke-width:1.0;" x1="438" x2="438" y1="329.2031" y2="1372.7847"/><line style="stroke:#181818;stroke-width:1.0;" x1="438" x2="322" y1="329.2031" y2="329.2031"/><polygon fill="#181818" points="332,325.2031,322,329.2031,332,333.2031,328,329.2031" style="stroke:#181818;stroke-width:1.0;"/><line style="stroke:#181818;stroke-width:1.0;" x1="140" x2="24" y1="329.2031" y2="329.2031"/><polygon fill="#181818" points="20,856.6479,24,866.6479,28,856.6479,24,860.6479" style="stroke:#181818;stroke-width:1.0;"/><line style="stroke:#181818;stroke-width:1.0;" x1="24" x2="24" y1="329.2031" y2="1402.7847"/><line style="stroke:#181818;stroke-width:1.0;" x1="24" x2="418.75" y1="1402.7847" y2="1402.7847"/><polygon fill="#181818" points="408.75,1398.7847,418.75,1402.7847,408.75,1406.7847,412.75,1402.7847" style="stroke:#181818;stroke-width:1.0;"/><line style="stroke:#181818;stroke-width:1.0;" x1="231" x2="231" y1="297.2031" y2="317.2031"/><polygon fill="#181818" points="227,307.2031,231,317.2031,235,307.2031,231,311.2031" style="stroke:#181818;stroke-width:1.0;"/><line style="stroke:#181818;stroke-width:1.0;" x1="354.25" x2="231" y1="241.2344" y2="241.2344"/><line style="stroke:#181818;stroke-width:1.0;" x1="231" x2="231" y1="241.2344" y2="263.2344"/><polygon fill="#181818" points="227,253.2344,231,263.2344,235,253.2344,231,257.2344" style="stroke:#181818;stroke-width:1.0;"/><line style="stroke:#181818;stroke-width:1.0;" x1="507.25" x2="630.5" y1="241.2344" y2="241.2344"/><line style="stroke:#181818;stroke-width:1.0;" x1="630.5" x2="630.5" y1="241.2344" y2="263.2344"/><polygon fill="#181818" points="626.5,253.2344,630.5,263.2344,634.5,253.2344,630.5,257.2344" style="stroke:#181818;stroke-width:1.0;"/><line style="stroke:#181818;stroke-width:1.0;" x1="630.5" x2="630.5" y1="297.2031" y2="1402.7847"/><line style="stroke:#181818;stroke-width:1.0;" x1="630.5" x2="442.75" y1="1402.7847" y2="1402.7847"/><polygon fill="#181818" points="452.75,1398.7847,442.75,1402.7847,452.75,1406.7847,448.75,1402.7847" style="stroke:#181818;stroke-width:1.0;"/><line style="stroke:#181818;stroke-width:1.0;" x1="430.75" x2="430.75" y1="209.2344" y2="229.2344"/><polygon fill="#181818" points="426.75,219.2344,430.75,229.2344,434.75,219.2344,430.75,223.2344" style="stroke:#181818;stroke-width:1.0;"/><line style="stroke:#181818;stroke-width:1.0;" x1="533.375" x2="430.75" y1="153.2656" y2="153.2656"/><line style="stroke:#181818;stroke-width:1.0;" x1="430.75" x2="430.75" y1="153.2656" y2="175.2656"/><polygon fill="#181818" points="426.75,165.2656,430.75,175.2656,434.75,165.2656,430.75,169.2656" style="stroke:#181818;stroke-width:1.0;"/><line style="stroke:#181818;stroke-width:1.0;" x1="823.375" x2="926" y1="153.2656" y2="153.2656"/><line style="stroke:#181818;stroke-width:1.0;" x1="926" x2="926" y1="153.2656" y2="175.2656"/><polygon fill="#181818" points="922,165.2656,926,175.2656,930,165.2656,926,169.2656" style="stroke:#181818;stroke-width:1.0;"/><line style="stroke:#181818;stroke-width:1.0;" x1="430.75" x2="430.75" y1="1414.7847" y2="1432.7847"/><line style="stroke:#181818;stroke-width:1.0;" x1="430.75" x2="666.375" y1="1432.7847" y2="1432.7847"/><polygon fill="#181818" points="656.375,1428.7847,666.375,1432.7847,656.375,1436.7847,660.375,1432.7847" style="stroke:#181818;stroke-width:1.0;"/><line style="stroke:#181818;stroke-width:1.0;" x1="926" x2="926" y1="209.2344" y2="1432.7847"/><line style="stroke:#181818;stroke-width:1.0;" x1="926" x2="690.375" y1="1432.7847" y2="1432.7847"/><polygon fill="#181818" points="700.375,1428.7847,690.375,1432.7847,700.375,1436.7847,696.375,1432.7847" style="stroke:#181818;stroke-width:1.0;"/><line style="stroke:#181818;stroke-width:1.0;" x1="678.375" x2="678.375" y1="121.2656" y2="141.2656"/><polygon fill="#181818" points="674.375,131.2656,678.375,141.2656,682.375,131.2656,678.375,135.2656" style="stroke:#181818;stroke-width:1.0;"/><line style="stroke:#181818;stroke-width:1.0;" x1="678.375" x2="678.375" y1="1444.7847" y2="1464.7847"/><polygon fill="#181818" points="674.375,1454.7847,678.375,1464.7847,682.375,1454.7847,678.375,1458.7847" style="stroke:#181818;stroke-width:1.0;"/><!--SRC=[ZPJBRjim44Nt-ef1LlAYyDvQ505S8B7hmWiLHPVZYfOdf2Y172B8ttVqY4szYguaKkVE5NavP6AZuAGCtP3XWCKx6ZWgzuP9uXaT9piuArkMmI9KgY81uMc9VyeIka9wRWcq3n4MQ71Dim6-AGlfRzma03juRWnfz2HMjiJgGWRUUbwtF3H3rKperYqk1hboNXM4NyTLftMnQiXe-SNLoW3lDv9jIRzPTWHh9kGV5gt9Jyj1WrTCs83gf2EBebsJ1PGFby1VXYTSb2CTU9VT2-Ke_t9tJ8VXvW7yGiq1JkZ5BtrvsLKLF9-svzCCEIeJqAqnUStYSi3gqwd3OY2KwBTdLtyeCVg15MvVzz7txtMtgUaHBTTkUq27Mkg5MyIyUYQ7RV8ViWxOKnzhkWzEj08EP7TufYTjlelJR7kJI6XBBLalxJyhnp8TiaYuU338NcjNjRCYQIGU-uTYqJYV_CxCevg65RDBcSoI-n_1DCQPPap7cSReDDueu1XRp_eVQSS5xi7t6cKBkYR3MzTtCb36I_lbLA3-RE5kqDucur0x6nwQ4aBNWd4lz-KdzHRkjBgHTHeacoMzHAw_klaB]--></g></svg>